<svg width="121" height="121" viewBox="0 0 121 121" fill="none" xmlns="http://www.w3.org/2000/svg">
<path fill-rule="evenodd" clip-rule="evenodd" d="M66.3606 90.8083C66.4714 93.2243 64.6087 95.2755 62.1933 95.3973H53.7934C51.378 95.2755 49.5153 93.2243 49.6261 90.8083V81.8963C37.7832 77.5504 31.0634 65.0326 33.9855 52.7605C36.9077 40.4885 48.5479 32.3424 61.0785 33.8003C73.6092 35.2582 83.0683 45.859 83.095 58.4741C83.0617 69.0446 76.3497 78.439 66.3606 81.8963V90.8083Z" stroke="#163E50" stroke-width="2.44919" stroke-linecap="round" stroke-linejoin="round"/>
<path d="M66.3645 83.1208C67.0408 83.1208 67.5891 82.5725 67.5891 81.8962C67.5891 81.2198 67.0408 80.6716 66.3645 80.6716V83.1208ZM49.625 80.6716C48.9487 80.6716 48.4004 81.2198 48.4004 81.8962C48.4004 82.5725 48.9487 83.1208 49.625 83.1208V80.6716ZM105.69 59.6979C106.366 59.6979 106.915 59.1496 106.915 58.4733C106.915 57.797 106.366 57.2487 105.69 57.2487V59.6979ZM95.6484 57.2487C94.9721 57.2487 94.4238 57.797 94.4238 58.4733C94.4238 59.1496 94.9721 59.6979 95.6484 59.6979V57.2487ZM20.3385 59.6978C21.0149 59.6978 21.5631 59.1495 21.5631 58.4732C21.5631 57.7969 21.0149 57.2486 20.3385 57.2486V59.6978ZM10.2969 57.2486C9.62055 57.2486 9.07228 57.7969 9.07228 58.4732C9.07228 59.1495 9.62055 59.6978 10.2969 59.6978V57.2486ZM92.5893 25.9769C93.0706 25.5017 93.0755 24.7264 92.6003 24.2451C92.1252 23.7638 91.3498 23.7589 90.8685 24.234L92.5893 25.9769ZM83.749 31.2632C83.2677 31.7384 83.2628 32.5137 83.7379 32.995C84.2131 33.4763 84.9885 33.4812 85.4697 33.0061L83.749 31.2632ZM32.2462 85.6876C32.7268 85.2118 32.7307 84.4364 32.2548 83.9558C31.779 83.4752 31.0036 83.4713 30.523 83.9472L32.2462 85.6876ZM23.4236 90.9763C22.943 91.4522 22.9391 92.2275 23.4149 92.7082C23.8908 93.1888 24.6661 93.1926 25.1468 92.7168L23.4236 90.9763ZM90.8784 92.7167C91.359 93.1926 92.1344 93.1887 92.6102 92.7081C93.0861 92.2275 93.0822 91.4522 92.6016 90.9763L90.8784 92.7167ZM85.5022 83.9471C85.0215 83.4713 84.2462 83.4752 83.7703 83.9558C83.2945 84.4364 83.2983 85.2117 83.7789 85.6876L85.5022 83.9471ZM30.5248 33.0061C31.0061 33.4812 31.7814 33.4763 32.2566 32.995C32.7318 32.5137 32.7268 31.7384 32.2455 31.2632L30.5248 33.0061ZM25.126 24.234C24.6447 23.7589 23.8694 23.7638 23.3942 24.2451C22.919 24.7264 22.924 25.5017 23.4053 25.9769L25.126 24.234ZM66.3645 80.6716H49.625V83.1208H66.3645V80.6716ZM105.69 57.2487H95.6484V59.6979H105.69V57.2487ZM20.3385 57.2486H10.2969V59.6978H20.3385V57.2486ZM90.8685 24.234L83.749 31.2632L85.4697 33.0061L92.5893 25.9769L90.8685 24.234ZM30.523 83.9472L23.4236 90.9763L25.1468 92.7168L32.2462 85.6876L30.523 83.9472ZM92.6016 90.9763L85.5022 83.9471L83.7789 85.6876L90.8784 92.7167L92.6016 90.9763ZM32.2455 31.2632L25.126 24.234L23.4053 25.9769L30.5248 33.0061L32.2455 31.2632Z" fill="#009EE0"/>
</svg>
