<svg width="96" height="114" viewBox="0 0 96 114" fill="none" xmlns="http://www.w3.org/2000/svg">
<g clip-path="url(#clip0_214_13895)">
<path fill-rule="evenodd" clip-rule="evenodd" d="M40.1552 4.67754C40.8164 6.03175 41.177 7.50907 41.3573 8.98639C41.5377 10.4022 41.4776 11.8795 41.3573 13.2337C41.2371 14.6495 40.9967 15.6343 40.8765 16.4961C40.5158 18.3428 40.3355 19.143 41.718 22.8363C42.7399 25.6063 43.5814 28.2531 43.8819 31.0231C44.1825 33.7931 44.0022 36.6862 43.0404 39.9486C42.3191 42.3492 41.2371 44.6268 40.1552 47.089C38.2918 51.1516 36.1879 55.7682 35.0459 61.9853C33.2426 71.3417 33.4229 72.4497 34.5049 79.2823L34.7453 80.6365C35.0459 82.6063 35.4065 84.6376 35.7672 86.5458C36.9093 92.7629 37.9912 98.549 36.9694 102.612C35.8874 106.921 33.7235 109.937 30.9584 111.845C28.7945 113.322 26.2699 114.061 23.6852 114.061C21.1005 114.061 18.5158 113.261 16.1715 111.783C12.7453 109.567 9.86007 105.997 8.41745 100.95C4.02947 85.8687 1.14422 57.4918 1.14422 57.3687C1.14422 57.3687 0.3628 50.2898 0.0622531 44.7499C-0.118075 41.6721 0.182472 40.3795 0.483018 38.9637C0.723455 37.9788 0.903783 36.8708 0.903783 35.8244C0.903783 34.4086 0.182472 32.4389 0.122362 30.5922C0.0622531 28.8687 0.30269 27.0836 0.963893 25.4832C1.56499 23.9443 3.30815 22.0976 5.05132 22.0976C5.05132 21.7283 5.05132 21.1743 5.11143 20.805C5.41198 18.7736 6.67428 16.927 8.65788 16.3114C9.4393 16.0652 10.2207 16.0037 11.0021 16.1268C10.942 15.7575 10.942 15.4497 10.942 15.0803C10.942 13.9724 11.3027 12.9259 11.8437 12.0641C12.9256 10.4022 14.6087 9.6635 16.4721 9.78661C16.3519 5.97019 19.8382 3.50799 23.2644 4.55443C24.2863 4.8622 25.2481 5.4162 25.9694 6.21641C26.5103 4.67754 27.3519 3.32332 28.3737 2.33844C29.4557 1.23045 30.718 0.491791 32.0404 0.184016C35.647 -0.677755 38.5322 1.47667 40.1552 4.67754ZM26.9912 14.8957L26.9311 14.7726C26.871 15.1419 26.871 15.4497 26.871 15.6959C26.9311 16.6192 27.0513 18.9583 27.6524 19.7585C28.0732 17.9734 27.5322 16.4961 26.9912 14.8957Z" fill="#FAFAFA"/>
<path fill-rule="evenodd" clip-rule="evenodd" d="M4.62962 36.5637C3.00667 35.5172 9.73891 29.7311 11.1815 28.4384C16.0504 23.8833 28.0722 16.4352 35.9466 20.4978C37.3291 21.2365 37.0285 21.5442 36.6078 22.1598C25.6078 17.9125 11.422 29.3002 4.62962 36.5637Z" fill="#FAFAFA"/>
<path fill-rule="evenodd" clip-rule="evenodd" d="M40.1552 4.67754C40.8164 6.03175 41.177 7.50907 41.3573 8.98639C41.5377 10.4022 41.4776 11.8795 41.3573 13.2337C41.2371 14.6495 40.9967 15.6343 40.8765 16.4961C40.5158 18.3428 40.3355 19.143 41.718 22.8363C42.7399 25.6063 43.5814 28.2531 43.8819 31.0231C44.1825 33.7931 44.0022 36.6862 43.0404 39.9486C42.3191 42.3492 41.2371 44.6268 40.1552 47.089C38.2918 51.1516 36.1879 55.7682 35.0459 61.9853C33.2426 71.3417 33.4229 72.4497 34.5049 79.2823L34.7453 80.6365C35.0459 82.6063 35.4065 84.6376 35.7672 86.5458C36.9093 92.7629 37.9912 98.549 36.9694 102.612C35.8874 106.921 33.7235 109.937 30.9584 111.845C28.7945 113.322 26.2699 114.061 23.6852 114.061C21.1005 114.061 18.5158 113.261 16.1715 111.783C12.7453 109.567 9.86007 105.997 8.41745 100.95C4.02947 85.8687 1.14422 57.4918 1.14422 57.3687C1.14422 57.3687 0.3628 50.2898 0.0622531 44.7499C-0.118075 41.6721 0.182472 40.3795 0.483018 38.9637C0.723455 37.9788 0.903783 36.8708 0.903783 35.8244C0.903783 34.4086 0.182472 32.4389 0.122362 30.5922C0.0622531 28.8687 0.30269 27.0836 0.963893 25.4832C1.56499 23.9443 3.30815 22.0976 5.05132 22.0976C5.05132 21.7283 5.05132 21.1743 5.11143 20.805C5.41198 18.7736 6.67428 16.927 8.65788 16.3114C9.4393 16.0652 10.2207 16.0037 11.0021 16.1268C10.942 15.7575 10.942 15.4497 10.942 15.0803C10.942 13.9724 11.3027 12.9259 11.8437 12.0641C12.9256 10.4022 14.6087 9.6635 16.4721 9.78661C16.3519 5.97019 19.8382 3.50799 23.2644 4.55443C24.2863 4.8622 25.2481 5.4162 25.9694 6.21641C26.5103 4.67754 27.3519 3.32332 28.3737 2.33844C29.4557 1.23045 30.718 0.491791 32.0404 0.184016C35.647 -0.677755 38.5322 1.47667 40.1552 4.67754ZM6.91471 23.1441C7.39559 23.5134 7.81635 24.0674 8.1169 24.6829C8.41745 25.2369 8.65788 25.914 8.83821 26.5911L9.01854 25.7909C11.3628 26.3449 12.7453 24.9907 13.2863 23.3287C13.5868 22.4054 13.7071 21.5436 13.647 20.8665C13.5267 19.697 12.9858 18.7736 12.2644 18.2812C11.0623 17.6041 9.86007 17.8503 9.13876 18.0965C7.63602 18.589 6.8546 20.0663 6.79449 21.5436C6.79449 22.0976 6.8546 22.5901 6.91471 23.1441ZM8.89832 26.8374C9.13876 28.13 9.01854 29.5458 8.47756 30.8384C8.53766 31.1462 8.47755 31.7618 8.53766 32.008C8.17701 32.3773 7.87646 32.4389 7.51581 32.7467C7.75624 31.9464 7.63602 31.3309 7.69613 30.6538C7.75624 30.2844 7.87646 29.7305 7.99668 28.7456C8.1169 27.5145 7.81635 26.2218 7.27537 25.2369C6.67428 24.1289 5.59231 23.3287 4.33001 24.0674C3.6087 24.4983 2.88739 25.5447 2.58684 26.2218C2.04586 27.576 1.80542 29.1149 1.86553 30.5922C1.92564 31.8233 2.10597 33.2391 2.52673 34.7164C2.64695 35.1473 2.64695 35.3935 2.70706 35.886C2.70706 37.0555 2.46663 38.2866 2.22619 39.4562C1.92564 40.6873 1.6852 41.8568 1.86553 44.7499C2.10597 50.2283 2.9475 57.2456 2.9475 57.3071C2.9475 57.3687 5.83275 85.6225 10.1606 100.58C11.483 105.135 14.0677 108.398 17.0732 110.306C19.1169 111.599 21.4011 112.276 23.6251 112.276C25.8491 112.276 28.0131 111.66 29.9366 110.368C32.3409 108.767 34.2644 106.059 35.1661 102.242C36.0677 98.6106 35.0459 93.0091 33.9639 86.9767C33.6032 85.0069 33.2426 83.0372 32.942 81.0058L32.7016 79.6516C31.5595 72.5112 31.3792 71.3417 33.2426 61.7391C34.4448 55.1527 36.5486 50.4745 38.4721 46.2888C39.5541 43.8881 40.5759 41.6721 41.2972 39.3946C42.1989 36.3784 42.3792 33.7315 42.0787 31.2078C41.7781 28.6225 40.9967 26.1603 40.0349 23.4518C38.6524 19.6354 38.6524 18.4659 39.0131 16.6192C38.2317 17.4194 37.33 17.9734 36.3683 18.1581C33.6634 18.8352 31.1388 17.2963 29.636 15.0188L30.5377 14.4032C31.8 16.2499 33.8437 17.6041 36.1278 17.0501C39.7344 16.1883 39.9748 12.2488 39.6142 9.1095C39.494 7.81685 39.1934 6.58574 38.5923 5.4162C37.3901 2.95399 35.2262 1.23045 32.4612 1.90756C31.4393 2.15378 30.4174 2.70777 29.5759 3.50799C28.3737 4.67754 27.4721 6.40108 27.2317 8.49395V8.67862C27.2918 8.92484 27.3519 9.1095 27.412 9.35572C27.5322 9.84816 27.6524 11.4486 27.4721 12.6797C28.0131 13.3568 30.0568 19.8816 27.953 20.6819C26.1497 21.359 25.9093 16.7423 25.8491 15.6343C25.8491 15.5728 25.8491 15.5112 25.8491 15.4497C24.5868 16.3114 22.7235 16.5577 21.2207 15.6343L21.5814 14.6495C24.2863 15.819 25.6688 14.5263 26.0295 12.6797C26.3901 11.1408 25.8491 8.61706 24.7672 7.44752C24.2262 6.89352 23.5049 6.46263 22.7836 6.21641C20.0787 5.4162 17.5541 7.57062 18.3956 10.3406C18.6961 10.5253 22.9639 14.3417 20.1989 19.5739C20.3191 21.1127 20.4393 22.0361 20.4994 22.2823L19.5377 22.8978C19.4776 22.3438 19.4174 21.1127 19.2972 20.6203C18.6961 20.9896 18.095 21.2359 17.4338 21.4205C16.7125 21.5436 15.9311 21.5436 15.2098 21.2974L15.5705 20.251C16.1114 20.4356 16.6524 20.4356 17.1934 20.3741C17.4939 20.3125 17.8546 20.1894 18.1552 20.0663C19.6579 18.9583 20.0185 17.2963 19.8382 15.3266C19.5978 13.2337 18.095 11.6333 16.3519 11.5101C14.4284 11.387 12.565 13.1721 12.6852 15.2035C12.6852 16.373 12.9256 16.9886 13.4666 17.8503C14.1278 18.5274 14.6688 19.5123 14.789 20.7434C14.9093 21.6052 14.789 22.6516 14.3683 23.6981C14.1879 24.1905 13.9475 24.6829 13.647 25.1754L14.0076 26.5296C13.4666 26.9605 13.4065 27.1451 12.8054 27.7607C12.7453 27.3914 12.6852 27.022 12.5049 26.5911C12.024 26.7758 11.4229 26.9605 10.8218 27.022C10.1606 26.9605 9.49941 26.9605 8.89832 26.8374ZM26.9912 14.8957L26.9311 14.7726C26.871 15.1419 26.871 15.4497 26.871 15.6959C26.9311 16.6192 27.0513 18.9583 27.6524 19.7585C28.0732 17.9734 27.5322 16.4961 26.9912 14.8957Z" fill="#009EE0"/>
<path fill-rule="evenodd" clip-rule="evenodd" d="M4.62962 36.5637C3.00667 35.5172 9.73891 29.7311 11.1815 28.4384C16.0504 23.8833 28.0722 16.4352 35.9466 20.4978C37.3291 21.2365 37.0285 21.5442 36.6078 22.1598C25.6078 17.9125 11.422 29.3002 4.62962 36.5637Z" fill="#009EE0"/>
<g clip-path="url(#clip1_214_13895)">
<path fill-rule="evenodd" clip-rule="evenodd" d="M26.8008 50.7008C26.0496 49.9213 24.8289 49.9213 24.0776 50.7008L17.3167 57.8624L15.6264 56.0598C14.8752 55.2803 13.6545 55.2803 12.9033 56.0598C12.152 56.8393 12.152 58.1547 12.9033 58.9342L15.9551 62.1495C16.7063 62.929 17.927 62.929 18.6783 62.1495L26.8008 53.5265C27.552 52.7957 27.552 51.4803 26.8008 50.7008Z" fill="#009EE0"/>
</g>
</g>
<g clip-path="url(#clip2_214_13895)">
<path fill-rule="evenodd" clip-rule="evenodd" d="M53.0897 4.67851C54.7236 1.47765 57.8028 -0.676778 61.5105 0.184993C62.9558 0.492768 64.2755 1.23143 65.4067 2.27787C66.475 3.3243 67.4176 4.61696 67.9203 6.15584C68.6744 5.41717 69.6799 4.80162 70.7482 4.49385C74.3302 3.44741 77.975 5.97117 77.8493 9.72603C79.8602 9.66447 81.5569 10.3416 82.6881 12.0036C83.2537 12.8653 83.6307 13.9118 83.6307 15.0198C83.6307 15.3891 83.6307 15.6969 83.5679 16.0662C84.3848 15.9431 85.2017 16.0046 86.0187 16.2509C88.0925 16.928 89.4121 18.7131 89.7263 20.7444C89.7892 21.1137 89.7892 21.6677 89.7892 22.037C91.6116 22.037 93.3711 23.8837 94.0624 25.4226C94.7537 27.023 95.005 28.8081 94.9422 30.5316C94.8793 32.3783 94.1252 34.3481 94.1252 35.7638C94.1252 36.7487 94.3766 37.9183 94.5651 38.9031C94.8793 40.2573 95.1935 41.55 95.005 44.6893C94.6908 50.2908 93.8739 57.3081 93.8739 57.3081C93.8739 57.3697 90.8575 85.7465 86.2701 100.889C84.7619 105.937 81.7455 109.507 78.2263 111.661C75.7755 113.139 73.0733 113.877 70.3711 113.939C67.669 113.939 65.0296 113.262 62.7673 111.723C59.8766 109.876 57.6143 106.798 56.4832 102.49C55.4149 98.4884 56.546 92.7023 57.74 86.4237C58.117 84.4539 58.4941 82.4226 58.8083 80.5144L59.0597 79.1602C60.1908 72.3275 60.3793 71.2196 58.4941 61.8632C57.2373 55.6461 55.0378 51.0295 53.1526 46.9669C51.9586 44.5046 50.8903 42.2271 50.1362 39.8265C49.0679 36.564 48.8793 33.671 49.2564 30.901C49.5706 28.131 50.4504 25.5457 51.5187 22.7142C52.964 19.0208 52.7755 18.2206 52.3985 16.374C52.2099 15.5738 52.0214 14.5889 51.8957 13.1116C51.77 11.7573 51.7072 10.28 51.8957 8.86426C51.9586 7.51005 52.3356 6.03272 53.0897 4.67851ZM66.1608 19.698C66.7892 18.8977 66.9777 16.6202 66.9777 15.6353C66.9777 15.3891 66.9777 15.0813 66.9149 14.712L66.852 14.8351C66.2864 16.4971 65.7209 17.9744 66.1608 19.698Z" fill="#FAFAFA"/>
<path fill-rule="evenodd" clip-rule="evenodd" d="M90.1672 36.5637C91.8639 35.5172 84.8256 29.7311 83.3803 28.4384C78.2901 23.8833 65.7218 16.4352 57.4896 20.4978C56.0442 21.2365 56.3584 21.5442 56.7983 22.1598C68.2355 17.9125 83.1289 29.3002 90.1672 36.5637Z" fill="#FAFAFA"/>
<path fill-rule="evenodd" clip-rule="evenodd" d="M53.0897 4.67851C54.7236 1.47765 57.8028 -0.676778 61.5105 0.184993C62.9558 0.492768 64.2755 1.23143 65.4067 2.27787C66.475 3.3243 67.4176 4.61696 67.9203 6.15584C68.6744 5.41717 69.6799 4.80162 70.7482 4.49385C74.3302 3.44741 77.975 5.97117 77.8493 9.72603C79.8602 9.66447 81.5569 10.3416 82.6881 12.0036C83.2537 12.8653 83.6307 13.9118 83.6307 15.0198C83.6307 15.3891 83.6307 15.6969 83.5679 16.0662C84.3848 15.9431 85.2017 16.0046 86.0187 16.2509C88.0925 16.928 89.4121 18.7131 89.7263 20.7444C89.7892 21.1137 89.7892 21.6677 89.7892 22.037C91.6116 22.037 93.3711 23.8837 94.0624 25.4226C94.7537 27.023 95.005 28.8081 94.9422 30.5316C94.8793 32.3783 94.1252 34.3481 94.1252 35.7638C94.1252 36.7487 94.3766 37.9183 94.5651 38.9031C94.8793 40.2573 95.1935 41.55 95.005 44.6893C94.6908 50.2908 93.8739 57.3081 93.8739 57.3081C93.8739 57.3697 90.8575 85.7465 86.2701 100.889C84.7619 105.937 81.7455 109.507 78.2263 111.661C75.7755 113.139 73.0733 113.877 70.3711 113.939C67.669 113.939 65.0296 113.262 62.7673 111.723C59.8766 109.876 57.6143 106.798 56.4832 102.49C55.4149 98.4884 56.546 92.7023 57.74 86.4237C58.117 84.4539 58.4941 82.4226 58.8083 80.5144L59.0597 79.1602C60.1908 72.3275 60.3793 71.2196 58.4941 61.8632C57.2373 55.6461 55.0378 51.0295 53.1526 46.9669C51.9586 44.5046 50.8903 42.2271 50.1362 39.8265C49.0679 36.564 48.8793 33.671 49.2564 30.901C49.5706 28.131 50.4504 25.5457 51.5187 22.7142C52.964 19.0208 52.7755 18.2206 52.3985 16.374C52.2099 15.5738 52.0214 14.5889 51.8957 13.1116C51.77 11.7573 51.7072 10.28 51.8957 8.86426C51.9586 7.51005 52.3356 6.03272 53.0897 4.67851ZM87.7782 23.145C87.8411 22.591 87.9668 22.0986 87.9039 21.5446C87.8411 20.0673 86.9613 18.59 85.4531 18.0975C84.699 17.8513 83.4422 17.6051 82.1853 18.2822C81.4313 18.8362 80.8657 19.698 80.74 20.8675C80.6772 21.5446 80.74 22.4064 81.117 23.3297C81.6826 24.9917 83.128 26.3459 85.5788 25.7919L85.7673 26.5921C85.893 25.915 86.1444 25.2995 86.5214 24.6839C86.8985 24.0684 87.2755 23.5144 87.7782 23.145ZM85.7673 26.8383C85.1389 26.9615 84.4476 27.023 83.7564 26.9615C83.128 26.8999 82.4996 26.7768 81.9968 26.5306C81.8083 26.9615 81.7455 27.3308 81.6826 27.7001C81.0542 27.1461 80.9914 26.9615 80.4258 26.469L80.8028 25.1148C80.4886 24.6224 80.2373 24.1299 80.0487 23.6375C79.6088 22.591 79.4832 21.5446 79.6088 20.6828C79.7345 19.4517 80.3001 18.4668 80.9914 17.7897C81.4941 16.928 81.8083 16.3124 81.8083 15.1429C81.934 13.1116 79.9859 11.3265 77.975 11.4496C76.2154 11.5727 74.5815 13.1116 74.3302 15.266C74.0788 17.2357 74.5187 18.8977 76.0897 20.0057C76.4039 20.1288 76.7181 20.2519 77.0952 20.3135C77.6608 20.4366 78.2892 20.3751 78.7919 20.1904L79.169 21.2368C78.4149 21.483 77.6608 21.5446 76.8438 21.3599C76.1526 21.2368 75.5241 20.9291 74.8957 20.5597C74.8329 21.1137 74.7072 22.2833 74.6444 22.8373L73.6389 22.2217C73.7017 21.9755 73.8274 21.0522 73.9531 19.5133C71.0624 14.2811 75.5241 10.4647 75.8384 10.28C76.7181 7.51005 74.1416 5.35562 71.2509 6.15584C70.434 6.40206 69.7427 6.83294 69.1771 7.38694C68.046 8.55648 67.4804 11.0802 67.8575 12.6191C68.2974 14.4658 69.6799 15.7584 72.5078 14.5889L72.8848 15.5738C71.2509 16.4971 69.3657 16.2509 68.046 15.3891C68.046 15.4507 68.046 15.5122 68.046 15.5738C67.9832 16.6818 67.7946 21.2984 65.8465 20.6213C63.6471 19.8211 65.7837 13.2962 66.3493 12.6191C66.1608 11.388 66.2864 9.84914 66.4121 9.29514C66.475 9.04892 66.5378 8.86426 66.6006 8.61804V8.43337C66.3493 6.46361 65.4067 4.74007 64.1498 3.57052C63.27 2.77031 62.2017 2.21631 61.1334 1.97009C58.2427 1.29298 55.9804 3.01653 54.7236 5.47873C54.158 6.64828 53.781 7.87938 53.6553 9.17203C53.2782 12.3113 53.5296 16.2509 57.3001 17.1126C59.6252 17.6666 61.8247 16.3124 63.1444 14.4658L64.087 15.0813C62.5159 17.2973 59.8766 18.8362 57.0487 18.2206C56.0433 17.9744 55.1006 17.482 54.2837 16.6818C54.6608 18.5284 54.7236 19.698 53.2154 23.5144C52.2099 26.1612 51.393 28.6234 51.0788 31.2088C50.7646 33.7325 50.9531 36.3794 51.8957 39.3956C52.6498 41.6731 53.7181 43.8891 54.8493 46.2897C56.7974 50.4755 59.0597 55.1537 60.3793 61.5554C62.3274 71.158 62.1389 72.3275 60.9449 79.4679L60.6935 80.8221C60.3793 82.8535 60.0023 84.8848 59.6252 86.793C58.4941 92.8254 57.4258 98.4269 58.3684 102.059C59.3739 105.875 61.3848 108.583 63.8356 110.184C65.7837 111.477 68.1088 112.092 70.434 112.092C72.7591 112.092 75.1471 111.415 77.2837 110.122C80.4258 108.214 83.128 104.952 84.5105 100.397C89.0351 85.4388 92.0515 57.2465 92.0515 57.1234C92.0515 57.1234 92.8684 50.1062 93.1826 44.5662C93.3083 41.7347 93.0569 40.5036 92.8056 39.2725C92.5542 38.1645 92.3028 36.8718 92.3028 35.7023C92.3028 35.2098 92.3657 35.0252 92.4914 34.5327C92.8684 32.9938 93.1198 31.6396 93.1826 30.4085C93.2455 28.9928 92.9941 27.3923 92.4285 26.0381C92.1143 25.361 91.4231 24.3146 90.6061 23.8837C89.3493 23.145 88.1553 23.9453 87.5269 25.0532C86.9613 26.0381 86.6471 27.3308 86.7728 28.5619C86.8985 29.5468 87.0241 30.1008 87.087 30.4701C87.1498 31.1472 87.0241 31.7627 87.2755 32.563C86.8356 32.1936 86.5843 32.1936 86.2072 31.8243C86.2701 31.5781 86.1444 30.9625 86.2701 30.6548C85.5788 29.5468 85.516 28.131 85.7673 26.8383ZM66.1608 19.698C66.7892 18.8977 66.9777 16.6202 66.9777 15.6353C66.9777 15.3891 66.9777 15.0813 66.9149 14.712L66.852 14.8351C66.2864 16.4971 65.7209 17.9744 66.1608 19.698Z" fill="#009EE0"/>
<path fill-rule="evenodd" clip-rule="evenodd" d="M90.1672 36.5637C91.8639 35.5172 84.8256 29.7311 83.3803 28.4384C78.2901 23.8833 65.7218 16.4352 57.4896 20.4978C56.0442 21.2365 56.3584 21.5442 56.7983 22.1598C68.2355 17.9125 83.1289 29.3002 90.1672 36.5637Z" fill="#009EE0"/>
<path fill-rule="evenodd" clip-rule="evenodd" d="M83.401 51.3066C82.6251 50.5345 81.3642 50.5345 80.5883 51.3066L73.6052 58.3996L71.8594 56.6143C71.0835 55.8422 69.8227 55.8422 69.0468 56.6143C68.2709 57.3863 68.2709 58.6891 69.0468 59.4611L72.1989 62.6457C72.9748 63.4177 74.2356 63.4177 75.0115 62.6457L83.401 54.1052C84.1769 53.3814 84.1769 52.0786 83.401 51.3066Z" fill="#009EE0"/>
</g>
<defs>
<clipPath id="clip0_214_13895">
<rect width="44" height="114" fill="white"/>
</clipPath>
<clipPath id="clip1_214_13895">
<rect width="15.0244" height="12.6667" fill="white" transform="translate(12.3398 50.1162)"/>
</clipPath>
<clipPath id="clip2_214_13895">
<rect width="46" height="114" fill="white" transform="translate(49.0664)"/>
</clipPath>
</defs>
</svg>
