<svg width="102" height="138" viewBox="0 0 102 138" fill="none" xmlns="http://www.w3.org/2000/svg">
<path d="M78.0045 64.2035C78.0045 64.2035 87.7417 66.8041 91.6757 60.4844C91.6757 60.4844 92.6243 67.3914 82.9987 67.5032C73.373 67.6151 78.0045 64.2035 78.0045 64.2035Z" fill="#F1F2F2"/>
<path d="M74.7948 77.9332C74.7948 77.9332 84.9227 80.6457 88.9962 74.0742C88.9962 74.0742 89.9727 81.2609 79.9564 81.3727C69.968 81.4566 74.7948 77.9332 74.7948 77.9332Z" fill="#F1F2F2"/>
<path d="M71.9785 91.9428C71.9785 91.9428 86.1799 93.6765 90.0022 85.0078C90.0022 85.0078 92.4296 93.5367 80.3487 95.3823C68.2398 97.2279 71.9785 91.9428 71.9785 91.9428Z" fill="#F1F2F2"/>
<path d="M78.0347 104.05C78.0347 104.05 89.5855 105.449 92.6825 98.4297C92.6825 98.4297 94.6355 105.365 84.8145 106.875C74.9935 108.385 78.0347 104.05 78.0347 104.05Z" fill="#F1F2F2"/>
<path d="M27.9531 55.5898C27.9531 55.5898 35.7374 65.6567 30.6316 78.5199C30.2689 79.4427 30.1015 80.4494 30.1015 81.4281V113.474C30.1015 117.809 33.589 121.304 37.9136 121.304H51.9476L53.0636 120.186C53.0636 120.186 33.0868 121.556 33.0868 113.307C33.0868 105.085 33.4495 78.9114 33.4495 78.9114C33.4495 78.9114 40.9827 61.1546 27.9531 55.5898Z" fill="#F1F2F2"/>
<path d="M1.61383 120.971C1.27902 120.971 0.944214 120.831 0.72101 120.523C0.358303 120.02 0.442004 119.321 0.916314 118.957C0.972115 118.901 6.97073 114.176 8.56107 105.787C8.95167 103.717 9.17488 101.704 9.37018 99.7465C10.0677 93.203 10.7094 87.051 17.7124 78.662C23.9343 71.3076 24.297 62.1076 23.9622 57.2978C23.8785 56.0954 24.3807 54.9209 25.3014 54.1659C26.2221 53.4109 27.366 53.1313 28.51 53.4109C30.5188 53.9142 33.1694 55.4522 34.5365 59.9264C36.908 67.7282 37.6055 73.3209 34.4807 80.5076C34.2296 81.0668 33.5879 81.3185 33.0019 81.0948C32.4439 80.8431 32.1928 80.2 32.416 79.6127C35.2898 73.0413 34.6481 68.0638 32.3602 60.5975C31.5232 57.8291 30.0166 56.1513 27.924 55.62C27.4776 55.5082 27.0312 55.62 26.6964 55.8997C26.3337 56.2073 26.1105 56.6826 26.1663 57.158C26.5569 62.3033 26.1663 72.1465 19.4702 80.144C12.8857 88.0018 12.2718 93.8462 11.6301 100.026C11.4348 102.012 11.2116 104.081 10.7931 106.262C9.03537 115.49 2.56245 120.523 2.28344 120.747C2.08814 120.887 1.86493 120.971 1.61383 120.971Z" fill="#4B4B4B"/>
<path d="M26.892 138.001C26.5572 138.001 26.2224 137.861 25.9992 137.582C25.6086 137.106 25.6923 136.379 26.1945 136.016C26.5293 135.764 34.3136 129.668 39.8379 128.55C45.0553 127.515 52.7558 122.733 52.7558 119.853C52.7558 119.238 53.258 118.734 53.8719 118.734C54.4857 118.734 54.9879 119.238 54.9879 119.853C54.9879 124.691 45.3343 129.724 40.2843 130.731C35.2901 131.737 27.6732 137.694 27.5895 137.75C27.3663 137.917 27.1152 138.001 26.892 138.001Z" fill="#4B4B4B"/>
<path d="M33.4754 61.3791C32.8616 61.3791 32.3594 60.8757 32.3594 60.2606V24.5791C32.3594 19.6016 36.405 15.5469 41.3713 15.5469H76.7212C81.6875 15.5469 85.7331 19.6016 85.7331 24.5791V54.2484C85.7331 54.8636 85.2309 55.3669 84.6171 55.3669C84.0033 55.3669 83.5011 54.8636 83.5011 54.2484V24.5791C83.5011 20.832 80.4599 17.784 76.7212 17.784H41.3713C37.6326 17.784 34.5914 20.832 34.5914 24.5791V60.2606C34.5914 60.8757 34.0892 61.3791 33.4754 61.3791Z" fill="#4B4B4B"/>
<path d="M67.85 25.1384H50.0774C47.7058 25.1384 45.8086 23.2089 45.8086 20.8599V15.5469H72.1467V20.8599C72.1188 23.2089 70.2216 25.1384 67.85 25.1384ZM48.0406 17.756V20.832C48.0406 21.9505 48.9614 22.8733 50.0774 22.8733H67.85C68.966 22.8733 69.8868 21.9505 69.8868 20.832V17.756H48.0406Z" fill="#4B4B4B"/>
<path d="M82.5525 69.4353C79.7904 69.4353 77.1398 67.8134 75.968 65.101C74.4056 61.4657 76.0796 57.2152 79.7067 55.6493L83.6407 53.9435C85.3984 53.1885 87.3514 53.1605 89.1371 53.8596C90.9227 54.5587 92.3177 55.9289 93.071 57.6906C93.8244 59.4523 93.8523 61.4098 93.1548 63.1994C92.4572 64.9891 91.0901 66.3873 89.3324 67.1423L85.3984 68.8481C84.4777 69.2396 83.5012 69.4353 82.5525 69.4353ZM86.4865 55.5934C85.8169 55.5934 85.1473 55.7332 84.5335 56.0128L80.5995 57.7186C78.0885 58.8092 76.9445 61.7174 78.0326 64.2341C79.1208 66.7508 82.0224 67.8973 84.5335 66.8067L88.4675 65.101C89.6672 64.5696 90.6158 63.6189 91.0901 62.3885C91.5644 61.1581 91.5644 59.8158 91.0343 58.5855C90.5042 57.383 89.5556 56.4323 88.328 55.9569C87.7141 55.7052 87.1003 55.5934 86.4865 55.5934Z" fill="#4B4B4B"/>
<path d="M82.8885 108.947C80.1263 108.947 77.4758 107.325 76.3039 104.613C74.7415 100.977 76.4155 96.727 80.0426 95.161L83.9766 93.4552C85.7343 92.7002 87.6874 92.6722 89.473 93.3713C91.2586 94.0704 92.6537 95.4406 93.407 97.2023C94.1603 98.964 94.1882 100.921 93.4907 102.711C92.7932 104.501 91.426 105.899 89.6683 106.654L85.7343 108.36C84.7857 108.779 83.8371 108.947 82.8885 108.947ZM86.8225 95.1051C86.1528 95.1051 85.4832 95.2449 84.8694 95.5245L80.9354 97.2303C78.4244 98.3209 77.2805 101.229 78.3686 103.746C79.4567 106.263 82.3584 107.409 84.8694 106.318L88.8034 104.613C90.0031 104.081 90.9517 103.131 91.426 101.9C91.9004 100.67 91.9004 99.3276 91.3702 98.0972C90.8401 96.8947 89.8915 95.944 88.6639 95.4686C88.0501 95.2169 87.4363 95.1051 86.8225 95.1051Z" fill="#4B4B4B"/>
<path d="M79.6791 83.5837C76.9169 83.5837 74.2664 81.9619 73.0945 79.2494C72.3412 77.4877 72.3133 75.5302 73.0108 73.7406C73.7083 71.9509 75.0755 70.5527 76.8332 69.7977L80.7672 68.0919C82.5249 67.3369 84.478 67.309 86.2636 68.0081C88.0492 68.7071 89.4443 70.0774 90.1976 71.8391C90.9509 73.6008 90.9788 75.5582 90.2813 77.3479C89.5837 79.1375 88.2166 80.5357 86.4589 81.2907L82.5249 82.9965C81.6042 83.388 80.6277 83.5837 79.6791 83.5837ZM83.613 69.7418C82.9434 69.7418 82.2738 69.8816 81.66 70.1612L77.726 71.867C76.5263 72.3983 75.5777 73.3491 75.1034 74.5795C74.6291 75.8099 74.6291 77.1521 75.1592 78.3825C75.6893 79.585 76.6379 80.5357 77.8655 81.0111C79.0931 81.4865 80.4324 81.4865 81.6321 80.9552L85.5661 79.2494C86.7658 78.7181 87.7144 77.7673 88.1887 76.5369C88.663 75.3065 88.663 73.9643 88.1329 72.7619C87.6028 71.5594 86.6542 70.6087 85.4266 70.1333C84.8407 69.8537 84.2268 69.7418 83.613 69.7418Z" fill="#4B4B4B"/>
<path d="M77.5877 97.8427C74.8255 97.8427 72.175 96.2208 71.0032 93.5084C69.4407 89.8731 71.1148 85.6227 74.7418 84.0567L81.6612 81.0646C83.4189 80.3096 85.372 80.2816 87.1576 80.9807C88.9432 81.6798 90.3383 83.05 91.0916 84.8117C91.8449 86.5734 91.8728 88.5309 91.1753 90.3205C90.4778 92.1102 89.1106 93.5084 87.3529 94.2634L80.4336 97.2555C79.5128 97.6749 78.5363 97.8427 77.5877 97.8427ZM84.507 82.7144C83.8653 82.7144 83.1957 82.8543 82.554 83.1339L75.6347 86.126C73.1236 87.2166 71.9797 90.1248 73.0678 92.6415C74.1559 95.1582 77.0576 96.3047 79.5686 95.2141L86.488 92.222C87.6877 91.6907 88.6363 90.74 89.1106 89.5096C89.5849 88.2792 89.5849 86.9369 89.0548 85.7065C88.2457 83.833 86.4043 82.7144 84.507 82.7144Z" fill="#4B4B4B"/>
<path d="M86.0679 107.185L85.761 110.82C85.7331 115.881 81.6038 120.132 76.7491 120.132H41.3713C36.405 120.132 32.3594 116.077 32.3594 111.099V80.0599C32.3594 79.4447 32.8616 78.9414 33.4754 78.9414C34.0892 78.9414 34.5914 79.4447 34.5914 80.0599V111.072C34.5914 114.819 37.6326 117.867 41.3713 117.867H76.7212C80.4041 117.867 83.5011 114.595 83.5011 110.736V110.652L83.808 106.989" fill="#4B4B4B"/>
<path d="M26.892 28.8878C26.334 28.8878 25.8318 28.4684 25.776 27.8811C25.7481 27.5176 24.9389 19.1565 29.9052 13.5918C32.6953 10.4878 36.6851 8.92188 41.8188 8.92188C42.4326 8.92188 42.9348 9.42522 42.9348 10.0404C42.9348 10.6556 42.4326 11.159 41.8188 11.159C37.3547 11.159 33.9229 12.4732 31.5793 15.0739C27.2547 19.8836 27.9801 27.5735 28.008 27.6574C28.0638 28.2726 27.6174 28.8319 27.0036 28.8878C26.9478 28.8878 26.9199 28.8878 26.892 28.8878Z" fill="#478DCB"/>
<path d="M18.8846 31.459C18.3266 31.459 17.8244 31.0395 17.7686 30.4523C17.7128 29.893 16.4014 16.3587 24.4089 7.4383C28.873 2.51672 35.318 0 43.5487 0C44.1625 0 44.6647 0.503343 44.6647 1.11854C44.6647 1.73374 44.1625 2.23708 43.5487 2.23708C35.9876 2.23708 30.1006 4.50213 26.0829 8.97629C18.7172 17.1696 19.9727 30.1167 20.0006 30.2565C20.0564 30.8717 19.61 31.431 18.9962 31.4869C18.9683 31.459 18.9125 31.459 18.8846 31.459Z" fill="#478DCB"/>
<path d="M77.3348 128.13C76.721 128.13 76.2188 127.627 76.2188 127.012C76.2188 126.396 76.721 125.893 77.3348 125.893C81.7989 125.893 85.2306 124.579 87.5743 121.978C91.8989 117.169 91.1734 109.507 91.1734 109.423C91.1176 108.807 91.564 108.248 92.1779 108.192C92.7917 108.136 93.3497 108.584 93.4055 109.199C93.4334 109.562 94.2425 117.924 89.2762 123.488C86.4583 126.564 82.4685 128.13 77.3348 128.13Z" fill="#478DCB"/>
<path d="M75.6356 137.05C75.0217 137.05 74.5195 136.546 74.5195 135.931C74.5195 135.316 75.0217 134.813 75.6356 134.813C83.1966 134.813 89.0836 132.547 93.0734 128.101C100.439 119.936 99.1836 106.961 99.1557 106.821C99.0999 106.206 99.5463 105.647 100.16 105.591C100.774 105.535 101.332 105.982 101.388 106.597C101.444 107.157 102.755 120.691 94.7474 129.611C90.2833 134.533 83.8662 137.05 75.6356 137.05Z" fill="#478DCB"/>
</svg>
