<svg width="185" height="22" viewBox="0 0 185 22" fill="none" xmlns="http://www.w3.org/2000/svg">
<path d="M0 21.2903H5.85367V1.09811H0V21.2903Z" fill="white"/>
<path d="M24.182 0.797852C21.4427 0.797852 19.0788 1.73615 17.5028 3.46261V1.09811H11.9118V21.2903H17.7654V11.3068C17.7654 7.59112 19.7917 5.86466 22.606 5.86466C25.1951 5.86466 26.696 7.36593 26.696 10.6312V21.2903H32.5497V9.73044C32.5497 3.57521 28.9474 0.797852 24.182 0.797852Z" fill="white"/>
<path d="M50.7513 0.797852C48.0121 0.797852 45.6481 1.73615 44.0722 3.46261V1.09811H38.4812V21.2903H44.3348V11.3068C44.3348 7.59112 46.3611 5.86466 49.1754 5.86466C51.7645 5.86466 53.2654 7.36593 53.2654 10.6312V21.2903H59.1191V9.73044C59.1191 3.57521 55.5168 0.797852 50.7513 0.797852Z" fill="white"/>
<path d="M74.8764 21.5905C81.2929 21.5905 85.9459 17.2744 85.9459 11.1942C85.9459 5.11402 81.2929 0.797852 74.8764 0.797852C68.4599 0.797852 63.7695 5.11402 63.7695 11.1942C63.7695 17.2744 68.4599 21.5905 74.8764 21.5905ZM74.8764 16.7864C71.9496 16.7864 69.6982 14.6846 69.6982 11.1942C69.6982 7.70372 71.9496 5.60193 74.8764 5.60193C77.8033 5.60193 80.0172 7.70372 80.0172 11.1942C80.0172 14.6846 77.8033 16.7864 74.8764 16.7864Z" fill="white"/>
<path d="M118.74 1.09811L113.824 14.7597L109.021 1.09811H104.068L99.1151 14.7597L94.3496 1.09811H88.8336L96.1132 21.2903H101.742L106.432 8.75461L110.972 21.2903H116.601L123.918 1.09811H118.74Z" fill="white"/>
<path d="M128.828 21.2903H134.682V1.09811H128.828V21.2903Z" fill="white"/>
<path d="M149.095 21.5905C155.137 21.5905 158.626 18.9258 158.626 15.1726C158.626 7.2158 146.431 10.5561 146.431 7.10321C146.431 6.05232 147.557 5.22661 150.183 5.22661C152.022 5.22661 154.011 5.60193 156 6.72789L157.951 2.56185C156.037 1.43589 152.96 0.797852 150.183 0.797852C144.292 0.797852 140.84 3.50015 140.84 7.3284C140.84 15.3978 153.035 12.0199 153.035 15.3227C153.035 16.4486 152.022 17.1618 149.32 17.1618C146.844 17.1618 144.105 16.3736 142.304 15.2101L140.352 19.4137C142.229 20.6522 145.681 21.5905 149.095 21.5905Z" fill="white"/>
<path d="M184.202 11.2692C184.202 4.77623 179.624 0.797852 173.695 0.797852C167.541 0.797852 162.926 5.15155 162.926 11.1942C162.926 17.1993 167.466 21.5905 174.446 21.5905C178.085 21.5905 180.9 20.4646 182.776 18.3252L179.661 14.9474C178.273 16.261 176.735 16.899 174.596 16.899C171.519 16.899 169.38 15.3602 168.817 12.8456H184.089C184.127 12.3577 184.202 11.7196 184.202 11.2692ZM173.733 5.22661C176.359 5.22661 178.273 6.87802 178.686 9.43018H168.742C169.155 6.84048 171.068 5.22661 173.733 5.22661Z" fill="white"/>
</svg>
