<svg width="30" height="30" viewBox="0 0 30 30" fill="none" xmlns="http://www.w3.org/2000/svg">
<path d="M1.36364 6.81818C2.11364 6.81818 2.72727 6.20455 2.72727 5.45455V4.09091C2.72727 3.34091 3.34091 2.72727 4.09091 2.72727H5.45455C6.20455 2.72727 6.81818 2.11364 6.81818 1.36364C6.81818 0.613636 6.20455 0 5.45455 0H4.09091C1.82727 0 0 1.82727 0 4.09091V5.45455C0 6.20455 0.613636 6.81818 1.36364 6.81818ZM5.45455 27.2727H4.09091C3.34091 27.2727 2.72727 26.6591 2.72727 25.9091V24.5455C2.72727 23.7955 2.11364 23.1818 1.36364 23.1818C0.613636 23.1818 0 23.7955 0 24.5455V25.9091C0 28.1727 1.82727 30 4.09091 30H5.45455C6.20455 30 6.81818 29.3864 6.81818 28.6364C6.81818 27.8864 6.20455 27.2727 5.45455 27.2727ZM25.9091 0H24.5455C23.7955 0 23.1818 0.613636 23.1818 1.36364C23.1818 2.11364 23.7955 2.72727 24.5455 2.72727H25.9091C26.6591 2.72727 27.2727 3.34091 27.2727 4.09091V5.45455C27.2727 6.20455 27.8864 6.81818 28.6364 6.81818C29.3864 6.81818 30 6.20455 30 5.45455V4.09091C30 1.82727 28.1727 0 25.9091 0ZM28.6364 23.1818C27.8864 23.1818 27.2727 23.7955 27.2727 24.5455V25.9091C27.2727 26.6591 26.6591 27.2727 25.9091 27.2727H24.5455C23.7955 27.2727 23.1818 27.8864 23.1818 28.6364C23.1818 29.3864 23.7955 30 24.5455 30H25.9091C28.1727 30 30 28.1727 30 25.9091V24.5455C30 23.7955 29.3864 23.1818 28.6364 23.1818ZM24.5455 18.9136V11.0864C24.5455 10.1045 24.0273 9.20455 23.1818 8.72727L16.3636 4.8C15.9409 4.55455 15.4773 4.43182 15 4.43182C14.5227 4.43182 14.0591 4.55455 13.6364 4.8L6.81818 8.71364C5.97273 9.20455 5.45455 10.1045 5.45455 11.0864V18.9136C5.45455 19.8955 5.97273 20.7955 6.81818 21.2727L13.6364 25.2C14.0591 25.4455 14.5227 25.5682 15 25.5682C15.4773 25.5682 15.9409 25.4455 16.3636 25.2L23.1818 21.2727C24.0273 20.7955 24.5455 19.8955 24.5455 18.9136ZM13.6364 22.05L8.18182 18.9136V12.6L13.6364 15.7773V22.05ZM15 13.4182L9.6 10.2682L15 7.15909L20.4 10.2682L15 13.4182ZM21.8182 18.9136L16.3636 22.05V15.7773L21.8182 12.6V18.9136Z" fill="#373839"/>
</svg>
