<svg width="95" height="125" viewBox="0 0 95 125" fill="none" xmlns="http://www.w3.org/2000/svg">
<g clip-path="url(#clip0_214_13960)">
<path fill-rule="evenodd" clip-rule="evenodd" d="M40.7378 4.64996C41.4087 5.99563 41.7746 7.46364 41.9576 8.93164C42.1405 10.3385 42.0795 11.8065 41.9576 13.1522C41.8356 14.559 41.5916 15.5377 41.4697 16.394C41.1037 18.229 40.9208 19.0242 42.3235 22.6942C43.3603 25.4467 44.2141 28.0769 44.519 30.8294C44.824 33.5819 44.641 36.4568 43.6652 39.6986C42.9334 42.0841 41.8356 44.3473 40.7378 46.794C38.8472 50.831 36.7126 55.4185 35.5539 61.5964C33.7242 70.8938 33.9072 71.9948 35.005 78.7843L35.2489 80.13C35.5539 82.0874 35.9198 84.1059 36.2857 86.0021C37.4445 92.1799 38.5423 97.9296 37.5055 101.967C36.4077 106.248 34.2121 109.245 31.4067 111.142C29.2112 112.61 26.6497 113.344 24.0272 113.344C21.4048 113.344 18.7823 112.549 16.4038 111.081C12.9275 108.879 10.0001 105.331 8.53641 100.315C4.08432 85.3292 1.15692 57.1312 1.15692 57.0089C1.15692 57.0089 0.36408 49.9747 0.0591423 44.4697C-0.12382 41.4113 0.181117 40.1268 0.486055 38.72C0.730005 37.7413 0.912967 36.6403 0.912967 35.6005C0.912967 34.1936 0.181117 32.2363 0.12013 30.4013C0.0591423 28.6886 0.303092 26.9147 0.973955 25.3244C1.58383 23.7952 3.35247 21.9602 5.12111 21.9602C5.12111 21.5932 5.12111 21.0427 5.18209 20.6757C5.48703 18.6572 6.76777 16.8222 8.78036 16.2105C9.57319 15.9658 10.366 15.9047 11.1589 16.027C11.0979 15.66 11.0979 15.3542 11.0979 14.9872C11.0979 13.8862 11.4638 12.8463 12.0127 11.99C13.1105 10.3385 14.8181 9.60448 16.7087 9.72682C16.5868 5.93446 20.124 3.48778 23.6003 4.52762C24.6371 4.83346 25.6129 5.38396 26.3448 6.17913C26.8936 4.64996 27.7475 3.30428 28.7843 2.32561C29.882 1.2246 31.1628 0.490601 32.5045 0.184766C36.1637 -0.671572 39.0911 1.46927 40.7378 4.64996ZM7.01172 23C7.49962 23.3671 7.92653 23.9176 8.23147 24.5292C8.53641 25.0797 8.78036 25.7526 8.96332 26.4254L9.14628 25.6302C11.5248 26.1807 12.9275 24.8351 13.4764 23.1836C13.7813 22.266 13.9033 21.4097 13.8423 20.7369C13.7203 19.5747 13.1715 18.6572 12.4396 18.1679C11.2199 17.495 10.0001 17.7397 9.26826 17.9844C7.74357 18.4737 6.95073 19.9417 6.88974 21.4097C6.88974 21.9602 6.95073 22.4495 7.01172 23ZM9.02431 26.6701C9.26826 27.9546 9.14628 29.3614 8.59739 30.6459C8.65838 30.9518 8.59739 31.5634 8.65838 31.8081C8.29246 32.1751 7.98752 32.2363 7.62159 32.5421C7.86554 31.7469 7.74357 31.1353 7.80456 30.4624C7.86554 30.0954 7.98752 29.5449 8.10949 28.5662C8.23147 27.3429 7.92653 26.0584 7.37764 25.0797C6.76777 23.9787 5.66999 23.1836 4.38926 23.9176C3.65741 24.3457 2.92556 25.3856 2.62062 26.0584C2.07173 27.4041 1.82778 28.9332 1.88877 30.4013C1.94975 31.6246 2.13272 33.0314 2.55963 34.4994C2.68161 34.9276 2.68161 35.1723 2.74259 35.6616C2.74259 36.8238 2.49864 38.0471 2.25469 39.2093C1.94976 40.4326 1.7058 41.5948 1.88877 44.4697C2.13272 49.9135 2.98654 56.8866 2.98654 56.9477C2.98654 57.0089 5.91394 85.0845 10.305 99.9481C11.6468 104.474 14.2692 107.716 17.3186 109.613C19.3922 110.897 21.7097 111.57 23.9662 111.57C26.2228 111.57 28.4183 110.958 30.3699 109.674C32.8094 108.083 34.761 105.392 35.6758 101.6C36.5907 97.9908 35.5539 92.4246 34.4561 86.4302C34.0902 84.4729 33.7242 82.5155 33.4193 80.497L33.1754 79.1513C32.0166 72.056 31.8336 70.8938 33.7242 61.3517C34.944 54.8069 37.0786 50.1582 39.0302 45.9988C40.1279 43.6133 41.1647 41.4113 41.8966 39.1481C42.8114 36.151 42.9943 33.5208 42.6894 31.0129C42.3845 28.4439 41.5916 25.9972 40.6158 23.3059C39.2131 19.5135 39.2131 18.3514 39.579 16.5163C38.7862 17.3115 37.8714 17.862 36.8956 18.0455C34.1512 18.7184 31.5897 17.1892 30.065 14.926L30.9798 14.3143C32.2605 16.1493 34.3341 17.495 36.6516 16.9445C40.3109 16.0882 40.5548 12.1735 40.1889 9.05398C40.0669 7.76947 39.762 6.54613 39.1521 5.38396C37.9324 2.93728 35.7368 1.2246 32.9314 1.89744C31.8946 2.14211 30.8578 2.69261 30.004 3.48778C28.7843 4.64996 27.8694 6.36263 27.6255 8.44231V8.62581C27.6865 8.87048 27.7475 9.05398 27.8085 9.29865C27.9304 9.78798 28.0524 11.3783 27.8694 12.6017C28.4183 13.2745 30.4919 19.7582 28.3573 20.5534C26.5277 21.2262 26.2838 16.6387 26.2228 15.5377C26.2228 15.4765 26.2228 15.4153 26.2228 15.3542C24.942 16.2105 23.0514 16.4552 21.5267 15.5377L21.8927 14.559C24.6371 15.7212 26.0398 14.4367 26.4057 12.6017C26.7717 11.0725 26.2228 8.56464 25.125 7.40247C24.5761 6.85197 23.8443 6.4238 23.1124 6.17913C20.368 5.38396 17.8065 7.5248 18.6603 10.2773C18.9653 10.4608 23.2954 14.2532 20.49 19.4524C20.6119 20.9815 20.7339 21.899 20.7949 22.1437L19.8191 22.7554C19.7581 22.2049 19.6971 20.9815 19.5751 20.4922C18.9653 20.8592 18.3554 21.1039 17.6845 21.2874C16.9527 21.4097 16.1598 21.4097 15.428 21.165L15.7939 20.1252C16.3428 20.3087 16.8917 20.3087 17.4406 20.2475C17.7455 20.1864 18.1114 20.064 18.4164 19.9417C19.9411 18.8407 20.307 17.1892 20.124 15.2318C19.8801 13.1522 18.3554 11.5618 16.5868 11.4395C14.6352 11.3172 12.7445 13.091 12.8665 15.1095C12.8665 16.2717 13.1105 16.8834 13.6594 17.7397C14.3302 18.4125 14.8791 19.3912 15.0011 20.6145C15.1231 21.4709 15.0011 22.5107 14.5742 23.5506C14.3912 24.0399 14.1473 24.5292 13.8423 25.0186L14.2082 26.3642C13.6594 26.7924 13.5984 26.9759 12.9885 27.5876C12.9275 27.2206 12.8665 26.8536 12.6836 26.4254C12.1957 26.6089 11.5858 26.7924 10.9759 26.8536C10.305 26.7924 9.63418 26.7924 9.02431 26.6701ZM27.3815 14.8037L27.3206 14.6813C27.2596 15.0483 27.2596 15.3542 27.2596 15.5988C27.3206 16.5163 27.4425 18.8407 28.0524 19.6359C28.4793 17.862 27.9304 16.394 27.3815 14.8037Z" fill="#009EE0"/>
<path fill-rule="evenodd" clip-rule="evenodd" d="M4.69578 36.3339C3.04912 35.2941 9.87972 29.5444 11.3434 28.2599C16.2834 23.7335 28.4809 16.3323 36.4703 20.3693C37.873 21.1033 37.5681 21.4091 37.1411 22.0208C25.9804 17.8003 11.5874 29.1162 4.69578 36.3339Z" fill="#009EE0"/>
</g>
<g clip-path="url(#clip1_214_13960)">
<path fill-rule="evenodd" clip-rule="evenodd" d="M53.6607 4.69386C55.2661 1.48184 58.2919 -0.680093 61.9351 0.184681C63.3554 0.493529 64.6521 1.23476 65.7636 2.28485C66.8134 3.33493 67.7396 4.63209 68.2336 6.17633C68.9746 5.4351 69.9626 4.8174 71.0124 4.50855C74.5321 3.45847 78.1136 5.99103 77.9901 9.75897C79.9661 9.6972 81.6333 10.3767 82.7448 12.0444C83.3006 12.9092 83.6711 13.9593 83.6711 15.0712C83.6711 15.4418 83.6711 15.7506 83.6093 16.1212C84.4121 15.9977 85.2148 16.0595 86.0176 16.3066C88.0553 16.986 89.3521 18.7773 89.6608 20.8157C89.7226 21.1864 89.7226 21.7423 89.7226 22.1129C91.5133 22.1129 93.2423 23.966 93.9216 25.5102C94.6008 27.1162 94.8478 28.9076 94.7861 30.6371C94.7243 32.4902 93.9833 34.4668 93.9833 35.8875C93.9833 36.8758 94.2303 38.0495 94.4156 39.0378C94.7243 40.3967 95.0331 41.6939 94.8478 44.8441C94.5391 50.4651 93.7363 57.5069 93.7363 57.5069C93.7363 57.5687 90.7723 86.0444 86.2646 101.24C84.7826 106.305 81.8186 109.888 78.3606 112.049C75.9524 113.532 73.2971 114.273 70.6419 114.335C67.9866 114.335 65.3931 113.655 63.1701 112.111C60.3296 110.258 58.1066 107.17 56.9951 102.846C55.9454 98.8308 57.0569 93.0244 58.2301 86.7239C58.6006 84.7473 58.9711 82.7089 59.2799 80.794L59.5269 79.4351C60.6384 72.5787 60.8236 71.4668 58.9711 62.0778C57.7361 55.8391 55.5749 51.2064 53.7224 47.1296C52.5492 44.6588 51.4994 42.3733 50.7584 39.9643C49.7087 36.6905 49.5234 33.7874 49.8939 31.0077C50.2027 28.2281 51.0672 25.6338 52.1169 22.7924C53.5372 19.0862 53.3519 18.2832 52.9814 16.4301C52.7962 15.6271 52.6109 14.6388 52.4874 13.1563C52.3639 11.7974 52.3022 10.3149 52.4874 8.8942C52.5492 7.53527 52.9197 6.05279 53.6607 4.69386ZM87.7466 23.2247C87.8083 22.6688 87.9318 22.1747 87.8701 21.6187C87.8083 20.1363 86.9438 18.6538 85.4618 18.1596C84.7208 17.9126 83.4858 17.6655 82.2508 18.3449C81.5098 18.9009 80.9541 19.7657 80.8306 20.9393C80.7688 21.6187 80.8306 22.4835 81.2011 23.4101C81.7568 25.0778 83.1771 26.4368 85.5853 25.8808L85.7706 26.6838C85.8941 26.0044 86.1411 25.3867 86.5116 24.769C86.8821 24.1513 87.2526 23.5954 87.7466 23.2247ZM85.7706 26.9309C85.1531 27.0545 84.4738 27.1162 83.7946 27.0545C83.1771 26.9927 82.5596 26.8692 82.0656 26.6221C81.8803 27.0545 81.8186 27.4251 81.7568 27.7957C81.1393 27.2398 81.0776 27.0545 80.5218 26.5603L80.8923 25.2014C80.5836 24.7072 80.3366 24.2131 80.1513 23.7189C79.7191 22.6688 79.5956 21.6187 79.7191 20.754C79.8426 19.5186 80.3983 18.5303 81.0776 17.8508C81.5716 16.986 81.8803 16.3683 81.8803 15.1947C82.0038 13.1563 80.0896 11.365 78.1136 11.4885C76.3846 11.6121 74.7791 13.1563 74.5321 15.3182C74.2851 17.2949 74.7174 18.9626 76.2611 20.0745C76.5698 20.198 76.8786 20.3216 77.2491 20.3833C77.8048 20.5069 78.4223 20.4451 78.9163 20.2598L79.2868 21.3099C78.5458 21.557 77.8048 21.6187 77.0021 21.4334C76.3228 21.3099 75.7054 21.001 75.0879 20.6304C75.0261 21.1864 74.9026 22.36 74.8409 22.9159L73.8529 22.2982C73.9146 22.0511 74.0381 21.1246 74.1616 19.5803C71.3211 14.3299 75.7054 10.5002 76.0141 10.3149C76.8786 7.53527 74.3469 5.37333 71.5064 6.17633C70.7036 6.42341 70.0244 6.8558 69.4686 7.41173C68.3571 8.58535 67.8014 11.1179 68.1719 12.6621C68.6041 14.5152 69.9626 15.8124 72.7414 14.6388L73.1119 15.6271C71.5064 16.5536 69.6539 16.3066 68.3571 15.4418C68.3571 15.5035 68.3571 15.5653 68.3571 15.6271C68.2954 16.7389 68.1101 21.3717 66.1959 20.6922C64.0346 19.8892 66.1341 13.3416 66.6899 12.6621C66.5046 11.4268 66.6281 9.88251 66.7516 9.32658C66.8134 9.07951 66.8751 8.8942 66.9369 8.64712V8.46181C66.6899 6.48518 65.7636 4.75563 64.5286 3.58201C63.6641 2.77901 62.6144 2.22308 61.5646 1.976C58.7241 1.29653 56.5011 3.02608 55.2661 5.49687C54.7104 6.67049 54.3399 7.90588 54.2164 9.20304C53.8459 12.3533 54.0929 16.3066 57.7979 17.1713C60.0826 17.7273 62.2439 16.3683 63.5406 14.5152L64.4669 15.1329C62.9231 17.3566 60.3296 18.9009 57.5509 18.2832C56.5629 18.0361 55.6366 17.5419 54.8339 16.7389C55.2044 18.592 55.2661 19.7657 53.7842 23.5954C52.7962 26.2515 51.9934 28.7222 51.6847 31.3166C51.3759 33.8491 51.5612 36.5052 52.4874 39.5319C53.2284 41.8174 54.2782 44.0411 55.3896 46.4501C57.3039 50.6505 59.5269 55.3449 60.8236 61.769C62.7379 71.405 62.5526 72.5787 61.3794 79.744L61.1324 81.1029C60.8236 83.1413 60.4531 85.1797 60.0826 87.0945C58.9711 93.148 57.9214 98.769 58.8476 102.413C59.8356 106.243 61.8116 108.961 64.2199 110.567C66.1341 111.864 68.4189 112.482 70.7036 112.482C72.9884 112.482 75.3349 111.802 77.4343 110.505C80.5218 108.59 83.1771 105.317 84.5356 100.746C88.9816 85.7356 91.9456 57.4451 91.9456 57.3216C91.9456 57.3216 92.7483 50.2798 93.0571 44.7206C93.1806 41.8792 92.9336 40.6438 92.6866 39.4084C92.4396 38.2965 92.1926 36.9994 92.1926 35.8258C92.1926 35.3316 92.2543 35.1463 92.3778 34.6521C92.7483 33.1079 92.9953 31.749 93.0571 30.5136C93.1188 29.0929 92.8718 27.4869 92.3161 26.1279C92.0073 25.4485 91.3281 24.3984 90.5253 23.966C89.2903 23.2247 88.1171 24.0278 87.4996 25.1396C86.9438 26.1279 86.6351 27.4251 86.7586 28.6605C86.8821 29.6488 87.0056 30.2047 87.0673 30.5753C87.1291 31.2548 87.0056 31.8725 87.2526 32.6755C86.8203 32.3049 86.5733 32.3049 86.2028 31.9343C86.2646 31.6872 86.1411 31.0695 86.2646 30.7606C85.5853 29.6488 85.5236 28.2281 85.7706 26.9309ZM66.5046 19.7656C67.1221 18.9626 67.3074 16.6772 67.3074 15.6889C67.3074 15.4418 67.3074 15.1329 67.2456 14.7623L67.1839 14.8858C66.6281 16.5536 66.0724 18.0361 66.5046 19.7656Z" fill="#009EE0"/>
<path fill-rule="evenodd" clip-rule="evenodd" d="M90.0967 36.6902C91.764 35.6401 84.848 29.8337 83.4277 28.5366C78.426 23.9656 66.076 16.4915 57.9868 20.5683C56.5665 21.3095 56.8753 21.6184 57.3075 22.2361C68.546 17.974 83.1807 29.4013 90.0967 36.6902Z" fill="#009EE0"/>
</g>
<defs>
<clipPath id="clip0_214_13960">
<rect width="44.6429" height="113.281" fill="white"/>
</clipPath>
<clipPath id="clip1_214_13960">
<rect width="45.2009" height="114.397" fill="white" transform="translate(49.7109)"/>
</clipPath>
</defs>
</svg>
