<svg width="141" height="133" viewBox="0 0 141 133" fill="none" xmlns="http://www.w3.org/2000/svg">
<path d="M33.6179 99.015C28.809 99.6171 27.6066 99.0141 24.0011 97.2117C20.3955 95.4093 18.3666 92.4018 16.7868 88.195C13.9516 80.6455 23.3988 59.3417 29.411 50.325C35.4232 41.3083 48.5825 29.8872 55.2579 29.8872C60.0668 29.8872 61.9065 30.7966 64.8757 33.4939C67.2896 35.6867 68.4912 37.5002 69.0835 40.7072C69.9969 45.6531 68.4546 49.6675 64.4644 52.7294M33.6179 99.015C38.4268 98.413 55.2579 90.5995 55.2579 90.5995C55.2579 90.5995 60.7117 105.877 64.8752 116.447M33.6179 99.015L40.2299 102.622C40.2299 102.622 22.1975 106.829 17.9888 108.633C12.9376 110.797 11.1403 116.754 13.1799 121.857C14.8006 125.912 19.19 128.469 22.1963 128.469C25.2026 128.469 64.8752 116.447 64.8752 116.447M41.4323 73.7683L55.2579 68.4165M55.2579 68.4165C55.2579 68.4165 58.0661 66.7837 60.0668 66.555C63.2391 66.1924 66.4007 67.48 67.8813 68.9594C69.3618 70.4389 74.9758 86.3917 74.9758 86.3917M55.2579 68.4165L50.4488 55.1339C50.4488 55.1339 48.0444 44.5938 50.4488 41.9094C52.0614 40.1092 52.8478 39.0842 55.2579 38.9039C57.4787 38.7377 59.0933 39.1323 60.6679 40.7072C61.8699 41.9094 63.6733 48.5217 64.4644 52.7294M74.9758 86.3917C74.9758 86.3917 88.9197 116.447 88.3186 120.655C87.7175 124.863 85.9405 128.119 81.7068 129.672C76.8933 131.437 70.8873 128.47 69.0835 126.065C67.2797 123.661 66.7368 121.173 64.8752 116.447M74.9758 86.3917C74.9758 86.3917 87.8255 94.5335 91.3246 95.4084C93.7289 96.0095 96.7882 94.8291 98.5378 93.0039C100.705 90.7429 98.5376 86.3917 97.3355 85.1895C95.2103 83.0639 89.2093 81.1281 83.5102 77.375C76.7045 72.8932 71.7486 70.7221 67.8813 63.5494C65.7783 59.6491 65.7988 56.9549 64.4644 52.7294M102.463 19.9531C102.463 30.4206 93.9777 38.9062 83.5102 38.9062C73.0427 38.9062 64.5571 30.4206 64.5571 19.9531C64.5571 9.48559 73.0427 1 83.5102 1C93.9777 1 102.463 9.48559 102.463 19.9531Z" stroke="#2985AB" stroke-width="1.58084"/>
<path d="M106.251 85.4982L105.678 84.9535L106.251 85.4982ZM96.0733 96.2011L96.6461 96.7458L96.0733 96.2011ZM96.1809 100.479L95.6362 101.051L96.1809 100.479ZM100.849 104.917L101.393 104.344L100.849 104.917ZM105.126 104.81L105.699 105.354L105.126 104.81ZM115.304 94.1067L114.731 93.5621L115.304 94.1067ZM110.548 85.4103L111.093 84.8375L110.52 84.2928L109.976 84.8656L110.548 85.4103ZM115.175 89.8102L115.748 90.3549L116.293 89.7821L115.72 89.2374L115.175 89.8102ZM110.595 87.2598L110.05 87.8326L110.595 87.2598ZM113.326 89.8567L113.87 89.2839L113.326 89.8567ZM106.824 86.0429C107.674 85.1483 109.089 85.1127 109.984 85.9634L111.073 84.8178C109.546 83.3655 107.131 83.4263 105.678 84.9535L106.824 86.0429ZM96.6461 96.7458L106.824 86.0429L105.678 84.9535L95.5005 95.6565L96.6461 96.7458ZM96.7255 99.9058C95.831 99.0551 95.7954 97.6404 96.6461 96.7458L95.5005 95.6565C94.0482 97.1837 94.109 99.5991 95.6362 101.051L96.7255 99.9058ZM101.393 104.344L96.7255 99.9058L95.6362 101.051L100.304 105.49L101.393 104.344ZM104.553 104.265C103.703 105.16 102.288 105.195 101.393 104.344L100.304 105.49C101.831 106.942 104.247 106.882 105.699 105.354L104.553 104.265ZM114.731 93.5621L104.553 104.265L105.699 105.354L115.877 94.6514L114.731 93.5621ZM114.652 90.4021C115.546 91.2527 115.582 92.6675 114.731 93.5621L115.877 94.6514C117.329 93.1242 117.268 90.7088 115.741 89.2565L114.652 90.4021ZM109.984 85.9634L114.652 90.4021L115.741 89.2565L111.073 84.8178L109.984 85.9634ZM110.004 85.983L114.631 90.383L115.72 89.2374L111.093 84.8375L110.004 85.983ZM111.14 86.687C110.932 86.49 110.924 86.1622 111.121 85.9549L109.976 84.8656C109.177 85.7055 109.21 87.0339 110.05 87.8326L111.14 86.687ZM113.87 89.2839L111.14 86.687L110.05 87.8326L112.781 90.4295L113.87 89.2839ZM114.603 89.2655C114.406 89.4728 114.078 89.481 113.87 89.2839L112.781 90.4295C113.621 91.2282 114.949 91.1948 115.748 90.3549L114.603 89.2655Z" fill="#2985AB"/>
<circle cx="101.23" cy="100.152" r="1.00852" transform="rotate(7.99177 101.23 100.152)" fill="#2985AB" stroke="#2985AB" stroke-width="1.58084"/>
<rect x="0.5" y="131.419" width="139.904" height="1.58084" fill="#2985AB"/>
</svg>
