<svg width="98" height="98" viewBox="0 0 98 98" fill="none" xmlns="http://www.w3.org/2000/svg">
<g clip-path="url(#clip0_487_18434)" filter="url(#filter0_d_487_18434)">
<path d="M12.0946 69.014C12.4142 68.854 12.6369 68.5789 12.7406 68.2647C12.8443 67.9504 12.8289 67.5969 12.6673 67.2781C12.3469 66.6401 11.5686 66.3833 10.9315 66.7054L6.31376 69.0328C5.6753 69.3545 5.41893 70.1315 5.74102 70.7686C6.06144 71.4065 6.83973 71.6633 7.47685 71.3414L12.0946 69.014Z" fill="#2985AB"/>
<path d="M16.7516 56.111C16.8553 55.7966 16.8387 55.4428 16.6783 55.1244L14.3509 50.5068C14.0292 49.8685 13.2522 49.6121 12.615 49.9341C11.977 50.2544 11.7206 51.0316 12.0423 51.6699L14.3698 56.2875C14.6901 56.9255 15.4684 57.1823 16.1056 56.8602C16.4239 56.7 16.6479 56.4253 16.7516 56.111Z" fill="#2985AB"/>
<path d="M12.2287 61.3571C12.4523 60.6795 12.0838 59.948 11.4062 59.7245L6.49566 58.1042C5.81807 57.8806 5.08662 58.2491 4.86305 58.9267C4.63948 59.6043 5.00799 60.3358 5.68557 60.5593L10.596 62.1795C11.2737 62.4033 12.0051 62.0348 12.2287 61.3571Z" fill="#2985AB"/>
<path d="M17.1642 71.1533C16.4866 70.9297 15.7552 71.2982 15.5316 71.9758L13.9109 76.8877C13.6873 77.5653 14.0558 78.2967 14.7334 78.5203C15.411 78.7438 16.1425 78.3753 16.366 77.6977L17.9867 72.786C18.2103 72.1083 17.8418 71.3769 17.1642 71.1533Z" fill="#2985AB"/>
<path d="M22.5119 72.452L24.8389 77.0706C25.1605 77.7091 25.9375 77.9655 26.5747 77.6434C26.8942 77.4834 27.1171 77.2083 27.2207 76.8941C27.3245 76.5798 27.309 76.2263 27.1475 75.9076L24.8204 71.2887C24.4996 70.6519 23.7225 70.3955 23.0846 70.7159C22.4463 71.0377 22.1899 71.8147 22.5119 72.452Z" fill="#2985AB"/>
<path d="M81.5176 18.9742C77.7431 19.2125 75.2095 18.7101 72.7598 18.2258C69.4563 17.5728 66.0396 16.8961 60.0346 18.1436L43.58 21.5626C40.9315 22.1139 39.0177 25.0259 39.5691 27.6785C39.7541 28.5659 40.1949 29.4002 40.8261 30.0821C39.3639 30.5158 38.1166 31.441 37.2706 32.73C36.3233 34.1734 35.9975 35.8995 36.3464 37.5896C36.6804 39.1973 37.5887 40.541 38.8113 41.4522C36.5917 42.8489 35.3538 45.5278 35.9201 48.2425C36.2483 49.8224 37.1334 51.1952 38.428 52.1397L20.0846 57.8021C14.8225 59.5125 14.6757 62.8536 15.0598 64.697C15.412 66.3936 16.4115 67.7662 17.8754 68.5649C19.2217 69.2991 20.8948 69.5095 22.6228 69.1485L55.8285 61.2677C56.5226 61.1033 56.9525 60.4066 56.7881 59.7126C56.6228 59.017 55.9274 58.5873 55.233 58.753L22.0614 66.6261C20.9685 66.8522 19.9221 66.7355 19.1122 66.2941C18.3149 65.8595 17.7895 65.1253 17.5912 64.171C17.4543 63.5132 17.0362 61.513 20.8656 60.2665L43.683 53.2242C44.3409 53.0206 44.7248 52.3359 44.5539 51.6657C44.381 50.9975 43.7135 50.5825 43.0381 50.7231C42.0237 50.9343 40.9889 50.7371 40.1213 50.1691C39.255 49.6016 38.662 48.7294 38.4517 47.7166C38.0181 45.6228 39.3662 43.5628 41.46 43.1294L43.9824 42.6058C43.9856 42.6042 43.9885 42.6037 43.9913 42.6034C44.6911 42.4586 45.138 41.7728 44.994 41.0746C44.8488 40.376 44.1651 39.9273 43.4654 40.0721C41.3712 40.5069 39.314 39.1584 38.8793 37.0641C38.6677 36.0509 38.867 35.01 39.4329 34.1486C40.0022 33.2815 40.8727 32.6892 41.8868 32.4794L45.6751 31.6916C45.6779 31.6911 45.6808 31.6908 45.6836 31.6903C46.3827 31.5438 46.8303 30.8597 46.6866 30.1604C46.5414 29.4618 45.8578 29.013 45.1579 29.1578C44.5189 29.2914 43.8145 29.1448 43.2271 28.7549C42.6422 28.3658 42.2315 27.7825 42.1004 27.1525C41.834 25.8722 42.8289 24.3586 44.106 24.0939L60.5606 20.6749C66.0517 19.5328 69.0671 20.1302 72.2577 20.7623C74.6244 21.2301 77.0635 21.7136 80.5575 21.6073L86.4337 49.8813C80.6137 52.5484 73.8525 57.3295 66.3189 64.1084C65.5039 64.8414 64.7086 65.5727 63.9383 66.2945C61.9638 68.1449 58.9925 68.9316 56.7133 68.2108C55.6781 67.8828 54.3598 67.0886 53.961 65.1656C53.815 64.4654 53.1302 64.0161 52.4316 64.1613C51.7326 64.3077 51.283 64.9939 51.4286 65.6912C51.9401 68.1469 53.5393 69.9174 55.9331 70.6745C59.1114 71.6824 63.0389 70.6791 65.7076 68.1809C66.4646 67.471 67.2464 66.7516 68.0479 66.0305C75.7921 59.0623 82.6461 54.2847 88.4178 51.8303C88.7693 51.6808 89.0259 51.3898 89.1394 51.046C89.2086 50.8361 89.2247 50.606 89.1775 50.3779L82.8652 20.0013C82.7342 19.3715 82.1598 18.9342 81.5176 18.9742Z" fill="#2985AB"/>
</g>
<defs>
<filter id="filter0_d_487_18434" x="-4" y="0" width="105.965" height="105.965" filterUnits="userSpaceOnUse" color-interpolation-filters="sRGB">
<feFlood flood-opacity="0" result="BackgroundImageFix"/>
<feColorMatrix in="SourceAlpha" type="matrix" values="0 0 0 0 0 0 0 0 0 0 0 0 0 0 0 0 0 0 127 0" result="hardAlpha"/>
<feOffset dy="4"/>
<feGaussianBlur stdDeviation="2"/>
<feComposite in2="hardAlpha" operator="out"/>
<feColorMatrix type="matrix" values="0 0 0 0 0 0 0 0 0 0 0 0 0 0 0 0 0 0 0.25 0"/>
<feBlend mode="normal" in2="BackgroundImageFix" result="effect1_dropShadow_487_18434"/>
<feBlend mode="normal" in="SourceGraphic" in2="effect1_dropShadow_487_18434" result="shape"/>
</filter>
<clipPath id="clip0_487_18434">
<rect width="77.5666" height="77.5666" fill="white" transform="translate(0 73.6602) rotate(-71.7395)"/>
</clipPath>
</defs>
</svg>
