<svg width="288" height="469" viewBox="0 0 288 469" fill="none" xmlns="http://www.w3.org/2000/svg">
<g opacity="0.5">
<path d="M51.3472 87.6612C52.1586 91.6255 53.5916 99.9661 55.0737 109.685C56.8126 121.102 58.071 130.721 58.2279 133.514C58.5193 132.961 58.7261 132.696 58.8007 132.729C59.1857 132.875 57.3691 137.711 55.819 145.818C54.2971 153.901 53.2019 165.367 54.9376 177.789C55.8097 183.982 57.3264 189.776 59.0087 194.979C60.6591 200.19 62.3797 204.833 63.7657 208.749C64.183 209.908 64.5625 210.976 64.9151 211.999C65.1641 212.645 65.413 213.291 65.6815 213.949C68.4139 220.952 71.053 228.497 73.2112 236.57C77.5875 252.686 80.4499 271.026 79.6849 290.768C79.4845 295.718 78.9283 300.65 78.8256 305.661C78.6753 310.684 78.6813 315.804 78.8878 320.996C79.2691 331.386 80.2664 342.053 81.3014 353.029C81.8109 358.519 82.335 364.073 82.743 369.703C83.1546 375.35 83.439 381.025 84.0315 386.731C85.197 398.129 87.1142 409.739 90.8901 420.989C92.8423 426.565 95.1992 432.082 98.4441 437.094C99.2073 438.374 100.131 439.551 100.982 440.778C101.934 441.932 102.829 443.132 103.877 444.196C104.857 445.327 105.986 446.306 107.075 447.327C108.24 448.248 109.373 449.242 110.644 450.038C111.854 450.932 113.198 451.61 114.49 452.35C115.855 452.974 117.199 453.652 118.631 454.126C120.033 454.691 121.514 455.02 122.967 455.439L125.206 455.861L126.326 456.072L127.459 456.196L129.742 456.441C130.402 456.474 131.198 456.441 131.962 456.416C133.506 456.362 135.091 456.266 136.656 456.157C139.782 455.923 143.005 455.818 146.017 455.376C158.254 453.566 169.268 446.145 175.795 436.024C179.119 430.974 181.477 425.36 183.239 419.632C184.962 413.88 186.153 407.999 187.108 402.105C190.85 378.498 192.625 355.359 197.387 333.71C198.589 328.312 199.979 323.004 201.624 317.856C202.444 315.307 203.248 312.762 204.059 310.249C204.835 307.727 205.614 305.221 206.33 302.73C209.221 292.742 211.477 282.9 212.941 273.257C214.46 263.635 215.192 254.228 215.684 245.16C215.916 240.637 216.064 236.185 216.185 231.838C216.238 229.667 216.279 227.515 216.323 225.379C216.352 223.247 216.516 221.05 216.812 218.99C219.085 202.382 223.123 187.846 223.18 174.559C223.66 167.988 223.999 161.818 222.987 156.326C222.429 153.609 221.606 151.053 220.51 148.761C220.022 147.585 219.358 146.516 218.808 145.437C218.155 144.415 217.597 143.372 216.898 142.445C211.601 134.842 205.738 130.383 201.746 127.652C199.714 126.312 198.077 125.383 196.972 124.8C195.867 124.217 195.292 123.898 195.316 123.859C195.341 123.82 195.93 124.052 197.087 124.573C198.245 125.093 199.914 125.948 202.015 127.222C206.148 129.837 212.175 134.208 217.704 141.875C217.754 141.947 217.804 142.019 217.854 142.091C217.647 141.335 217.379 140.242 217.085 138.82C216.468 135.916 215.697 131.691 215.136 126.414C214.865 123.781 214.615 120.876 214.5 117.756C214.337 114.647 214.472 111.302 213.616 108.017C212.795 104.741 210.636 101.756 207.935 99.1805C205.237 96.6208 202.029 94.2454 198.252 93.3232C194.554 92.3828 190.411 93.4361 188.042 96.09C186.854 97.401 186.276 99.1074 186.105 100.837C185.937 102.583 186.106 104.335 186.318 106.061C186.728 109.515 187.2 112.804 188.526 115.512C189.173 116.869 190.057 118.022 191.085 118.924C192.144 119.818 193.31 120.521 194.478 121.089C196.82 122.174 199.13 122.831 201.165 123.016C202.188 123.098 203.158 123.093 204.06 123.086C204.959 123.064 205.762 123.063 206.472 122.95C209.378 122.482 210.481 121.023 210.542 121.143C210.566 121.171 210.345 121.523 209.723 122.018C209.1 122.513 208.048 123.106 206.566 123.43C205.819 123.602 204.975 123.646 204.084 123.7C203.177 123.758 202.195 123.783 201.128 123.727C198.973 123.603 196.587 122.981 194.115 121.909C192.883 121.355 191.63 120.639 190.473 119.684C189.312 118.712 188.315 117.435 187.599 115.993C186.923 114.658 186.456 113.209 186.097 111.719C184.967 110.589 181.898 106.709 177.677 102.692C172.575 97.7562 167.761 94.5116 167.957 94.1987C168.109 93.9127 173.326 96.7298 178.553 101.771C182.117 105.186 184.664 108.617 185.826 110.542C185.552 109.132 185.338 107.692 185.156 106.244C184.939 104.503 184.736 102.675 184.899 100.763C185.065 98.8669 185.721 96.8414 187.111 95.3166C187.204 95.2115 187.333 95.115 187.426 95.01C187.563 94.4427 187.724 93.6861 187.856 92.7349C188.137 90.4611 188.268 87.1001 187.712 83.01C187.43 80.9827 187.001 78.7548 186.184 76.5156C185.305 74.2909 184.162 71.9427 182.661 69.7103C181.902 68.5959 181.061 67.4839 180.18 66.3475C179.732 65.7811 179.284 65.2147 178.832 64.6324C178.372 64.0183 177.966 63.5595 177.408 63.1018C176.329 62.1951 175.029 61.4899 173.639 60.9057C172.952 60.6118 172.237 60.341 171.514 60.1058C170.771 59.8583 170.067 59.6352 169.364 59.5626C166.433 59.2658 163.559 60.814 161.879 63.0417C160.119 65.2876 159.267 68.0611 158.917 70.6859C158.25 76.0112 159.78 80.915 162.011 84.285C162.249 84.6654 162.512 85.0067 162.759 85.3516C162.806 85.3407 162.856 85.4129 162.905 85.5523C164.944 88.2301 167.251 89.8921 168.941 90.9093C170.917 92.0784 172.164 92.4778 172.122 92.5878C172.114 92.6233 171.798 92.5619 171.204 92.3806C170.623 92.1796 169.75 91.8782 168.704 91.3322C167.167 90.5474 165.162 89.2511 163.234 87.2006C163.277 87.4586 163.311 87.7521 163.348 88.0614C163.399 88.5016 163.438 88.9613 163.5 89.4492C163.518 89.964 163.66 90.4335 163.534 91.1988C163.472 91.5815 163.194 92.0471 162.762 92.2803C162.346 92.5098 161.887 92.5486 161.465 92.4615C160.563 92.2506 160.037 91.568 159.665 90.9674C159.266 90.3228 159.045 89.6538 158.891 88.9862C157.694 88.0732 155.41 86.2217 152.312 84.7584C147.904 82.6254 143.843 82.2875 143.874 81.9121C143.833 81.5869 148.162 81.3443 152.852 83.6132C155.593 84.9075 157.563 86.6304 158.706 87.8906C158.683 87.6448 158.66 87.399 158.644 87.1851C158.591 86.0089 158.706 84.9782 158.841 84.1103C159.039 82.8597 159.292 81.9979 159.474 81.6215C158.069 78.4966 157.271 74.6631 157.741 70.5212C158.086 67.7302 158.942 64.7549 160.877 62.2511C161.209 61.8063 161.601 61.3982 162.028 60.9988C161.906 60.5414 161.726 59.8297 161.427 58.8942C160.866 57.1821 159.963 54.7117 158.08 52.1318C156.246 49.541 153.424 46.876 149.722 44.8988C147.876 43.934 145.796 43.04 143.625 42.5518C141.473 42.0759 139.101 42.1695 137.335 43.5131C135.545 44.8286 134.523 47.0054 133.912 49.1543C133.322 51.3155 133.133 53.5516 133.018 55.6703C132.838 59.9127 133.352 63.7448 134.088 66.8728C134.466 68.4429 134.827 69.8664 135.336 70.9879C135.832 72.129 136.518 72.9254 137.217 73.4174C138.666 74.4063 139.761 74.0709 139.762 74.2213C139.773 74.269 139.537 74.4069 139.033 74.4726C138.525 74.5224 137.739 74.4521 136.878 73.9808C136.537 73.8081 136.209 73.5487 135.871 73.2416C135.939 73.3932 136.015 73.5767 136.098 73.7919C136.364 74.5844 136.815 75.8196 136.53 77.4919C136.376 78.3476 135.928 79.2374 135.151 79.935C134.941 80.117 134.713 80.2868 134.445 80.4321C134.448 80.4479 134.472 80.4761 134.472 80.4761C134.446 80.5824 134.211 80.6532 133.85 80.6859C133.803 80.6969 133.762 80.7397 133.699 80.7543C133.134 80.9177 132.477 80.9013 131.88 80.7041C131.188 80.6791 130.425 80.637 129.591 80.5777C126.939 80.4009 124.77 80.2135 124.757 79.8651C124.744 79.5166 126.951 79.1429 129.67 79.3209C129.84 79.332 129.978 79.3505 130.148 79.3616C129.832 78.9322 129.572 78.4564 129.379 77.9819C128.937 76.8616 128.748 75.7501 128.536 74.6105C127.701 70.0324 127.94 65.7594 128.479 62.7901C128.637 61.9502 128.805 61.2253 128.963 60.6031C128.23 61.7091 127.406 62.6352 126.593 63.3242C125.146 64.5275 123.77 65.095 122.816 65.3144C121.866 65.5496 121.34 65.5199 121.349 65.4845C121.331 65.405 121.835 65.3393 122.727 65.0001C123.608 64.6804 124.866 64.0394 126.179 62.8336C127.456 61.6193 128.784 59.8242 129.573 57.4333C130.347 55.0461 130.544 52.1217 130.102 48.9596C129.647 45.8171 128.779 42.3344 127.392 38.8538C125.997 35.4087 123.813 31.8774 120.276 29.745C118.527 28.691 116.506 27.9841 114.422 27.9447C112.334 27.8894 110.239 28.6055 108.481 29.9137C104.902 32.5447 102.782 37.0828 101.89 41.7905C100.993 46.5495 101.317 51.3791 102.062 55.9279C102.842 60.4852 104.062 64.8411 105.138 69.0122C106.231 73.1798 107.175 77.2139 107.644 81.0729C107.885 82.9926 108.027 84.9183 107.782 86.7655C107.772 86.8682 107.746 86.9746 107.721 87.0809C108.357 86.2818 109.129 85.4179 110.071 84.5652C112.969 81.957 115.974 80.8307 116.111 81.134C116.271 81.4655 113.669 83.0347 110.924 85.5073C109.31 86.9329 108.029 88.349 107.162 89.2348C106.804 90.1539 106.317 91.0192 105.694 91.7316C104.541 93.0512 102.961 93.967 101.313 94.0783C99.6645 94.1896 98.1819 93.4928 97.1544 92.591C95.0405 90.7506 94.4029 88.2694 94.2709 86.4586C94.1983 85.4878 94.2062 84.6491 94.2593 83.9339C92.4261 87.9709 90.1327 91.0258 88.12 93.0454C86.5869 94.6031 85.2303 95.6182 84.2884 96.2532C83.327 96.8761 82.7876 97.1508 82.7607 97.1068C82.6606 96.9624 84.7607 95.7596 87.6337 92.6049C90.4627 89.477 93.912 84.0975 95.4616 76.6442C97.0662 69.2118 96.5569 59.939 94.1065 50.1586C92.8727 45.3039 91.0253 40.2555 87.6098 36.1034C84.2408 32.0076 79.0897 28.8238 73.4508 29.0496C70.6631 29.1552 67.9214 29.9699 65.4911 31.2654C63.0571 32.5449 60.9187 34.3088 59.0967 36.2845C55.4407 40.2554 52.9174 45.0035 51.0886 49.6421C47.4726 59.0268 47.1174 68.398 48.337 75.8838C48.9505 79.6427 49.9005 82.9726 51.2667 85.6377C52.617 88.3064 54.3884 90.259 56.0943 91.4902C57.8039 92.7373 59.3758 93.3131 60.4429 93.5865C61.526 93.8563 62.1226 93.9032 62.1213 93.9704C62.1164 94.0218 61.5136 94.0935 60.3693 93.9215C59.241 93.7458 57.5529 93.247 55.7161 92.0291C54.191 91.0744 52.6638 89.6012 51.3472 87.6612ZM176.464 94.6523C176.493 94.5619 178.111 95.1939 179.595 96.694C181.09 98.1744 181.748 99.7973 181.652 99.8193C181.533 99.8803 180.741 98.4053 179.292 96.9811C177.875 95.5496 176.406 94.766 176.464 94.6523ZM176.181 92.257C176.157 92.0112 177.709 91.7715 179.221 90.704C180.756 89.6647 181.526 88.2824 181.754 88.3975C181.966 88.449 181.466 90.2044 179.715 91.3939C177.954 92.619 176.149 92.482 176.181 92.257ZM202.504 124.398C202.472 124.188 205.284 124.043 208.319 125.521C211.362 126.964 213.009 129.246 212.817 129.357C212.639 129.532 210.815 127.642 207.941 126.278C205.094 124.89 202.479 124.655 202.504 124.398ZM147.346 72.4099C145.994 71.9175 145.454 71.1713 145.526 71.1212C145.616 71.0002 146.262 71.5545 147.515 71.8354C148.74 72.1395 150.588 72.0993 152.353 71.2582C154.118 70.4171 155.448 69.1404 156.368 68.1923C157.288 67.2442 157.85 66.6296 157.948 66.6908C158.03 66.7557 157.648 67.4963 156.824 68.5728C155.997 69.6335 154.671 71.0765 152.727 72.0091C150.75 72.9491 148.666 72.9097 147.346 72.4099ZM138.505 76.8368C138.494 76.7891 139.092 76.5511 140.133 76.3452C141.158 76.143 142.636 76.0206 144.247 76.1856C145.859 76.3506 147.263 76.7808 148.229 77.1947C149.194 77.6087 149.745 77.9673 149.721 78.0064C149.667 78.136 147.347 76.9288 144.196 76.6159C141.053 76.2677 138.519 76.9676 138.505 76.8368ZM107.667 71.0583C107.57 70.9971 108.622 69.5332 110.495 68.4329C112.36 67.3009 114.149 67.0736 114.155 67.1726C114.184 67.2998 112.503 67.7032 110.71 68.7852C108.913 69.8513 107.773 71.1513 107.667 71.0583ZM115.554 65.6123C115.56 65.7114 114.793 65.871 113.553 65.7209C112.314 65.5708 110.627 65.0048 109.077 63.8715C107.524 62.7223 106.487 61.2703 105.991 60.1292C105.478 58.9918 105.414 58.2032 105.509 58.1812C105.737 58.0787 106.642 61.0675 109.589 63.1847C112.456 65.3875 115.582 65.3715 115.554 65.6123ZM114.154 78.3034C111.519 79.5792 109.774 81.2358 109.681 81.1232C109.638 81.0829 110.035 80.6234 110.775 79.9845C111.515 79.3456 112.626 78.5713 113.964 77.912C115.302 77.2528 116.603 76.8698 117.561 76.6663C118.518 76.4629 119.116 76.4425 119.131 76.5061C119.163 76.6492 116.767 76.9995 114.154 78.3034ZM62.0352 125.106C61.9606 125.073 62.1469 124.427 62.6075 123.3C63.068 122.174 63.8614 120.602 65.0279 118.76C67.3255 115.068 71.3378 110.463 76.5785 106.395C81.8155 102.312 87.0469 99.3681 90.8324 97.3424C94.6533 95.3254 97.0725 94.1999 97.1408 94.3516C97.2288 94.5155 94.9549 95.9088 91.2609 98.1142C87.5902 100.348 82.4799 103.381 77.3431 107.391C72.2064 111.401 68.1906 115.773 65.7623 119.261C63.3146 122.736 62.2393 125.193 62.0352 125.106ZM59.0605 116.685C59.041 116.672 59.1047 116.44 59.2627 116.036C59.4048 115.635 59.673 115.054 60.0146 114.356C60.7174 112.973 61.8839 111.131 63.4881 109.373C65.1081 107.611 66.8305 106.294 68.1479 105.472C68.8047 105.054 69.3564 104.759 69.7477 104.569C70.1391 104.378 70.3703 104.292 70.3776 104.324C70.4081 104.383 69.5764 104.843 68.3054 105.721C67.0345 106.599 65.383 107.933 63.7874 109.656C62.2114 111.391 61.0266 113.153 60.2652 114.499C59.5 115.83 59.1155 116.705 59.0605 116.685Z" fill="#EABD96"/>
<path d="M55.0723 109.669C53.5938 99.9659 52.173 91.6057 51.3457 87.645C52.6623 89.5851 54.1737 91.0619 55.6475 92.0117C57.4842 93.2296 59.1723 93.7284 60.3007 93.9041C61.4449 94.0761 62.0477 94.0044 62.0526 93.953C62.0539 93.8858 61.4573 93.8389 60.3743 93.5691C59.2912 93.2993 57.7352 92.7199 56.0257 91.4728C54.3198 90.2416 52.5484 88.289 51.1981 85.6203C49.8319 82.9552 48.8782 79.6093 48.2684 75.8664C47.0328 68.3843 47.3917 59.029 51.0199 49.6247C52.8646 44.9824 55.372 40.238 59.0281 36.2671C60.85 34.2914 62.9884 32.5275 65.4224 31.2479C67.8564 29.9684 70.5785 29.1414 73.3821 29.0322C77.346 28.8737 81.0641 30.412 84.0982 32.7604C79.0581 31.6601 73.5292 31.9275 69.2245 35.0433C66.0109 37.3725 63.9422 40.8947 61.9541 44.3312C60.9025 46.1632 59.8228 48.0184 59.3054 50.0622C58.8236 51.8971 58.8148 53.8239 58.8856 55.7325C59.0325 60.5192 59.7002 65.387 61.7511 69.719C63.802 74.0511 67.3987 77.8267 71.9899 79.2312C73.1584 79.5817 74.4555 79.8357 75.2691 80.7533C75.6991 81.2402 75.9444 81.87 76.1224 82.4986C77.0407 85.8358 75.995 89.6582 73.4808 92.0442C70.9665 94.4302 67.1158 95.2991 63.8204 94.2159C64.1369 96.1015 63.8115 98.0342 63.7478 99.9402C63.684 101.846 62.8431 103.211 64.4783 104.208C66.0902 105.176 67.9377 104.985 70.3798 104.323C69.3204 105.103 64.6136 108.143 63.4903 109.373C61.8862 111.131 60.716 112.957 60.0169 114.356C59.6594 115.058 59.4034 115.619 59.2649 116.035C59.1069 116.44 59.0432 116.672 59.0628 116.684C59.1373 116.717 59.5182 115.826 60.2833 114.496C61.0484 113.165 62.2295 111.387 63.8055 109.652C64.9851 108.376 68.2298 105.236 70.3957 104.32C64.591 113.94 63.4481 122.07 64.1652 121.185C61.2268 126.748 61.66 126.23 58.2388 133.478C57.6599 129.142 56.0323 116.026 55.0723 109.669Z" fill="#DD9C78"/>
<path d="M109.529 85.6939C113.714 81.4006 119.367 78.7614 125.319 79.5347C126.158 79.325 127.748 79.177 129.617 79.2994C129.787 79.3106 129.925 79.329 130.095 79.3401C129.779 78.9108 129.519 78.435 129.326 77.9604C128.884 76.8402 128.695 75.7287 128.483 74.589C128.465 74.5095 128.463 74.4264 128.444 74.3469C126.807 75.3764 124.496 75.5899 122.445 75.6263C121.761 75.6332 121.076 75.64 120.395 75.6628C118.776 75.6836 117.055 75.6946 115.633 74.9001C114.212 74.1055 113.262 72.2318 114.041 70.8141C114.463 70.0307 115.295 69.5716 116.082 69.1393C118.565 67.7816 121.052 66.4397 123.535 65.0819C123.256 65.1795 122.989 65.2576 122.767 65.3088C121.817 65.5441 121.291 65.5143 121.3 65.4789C121.281 65.3994 121.785 65.3338 122.678 64.9945C123.204 64.8066 123.867 64.4868 124.592 64.0019C120.915 64.245 117.08 63.8718 114.117 61.7581C111.349 59.7669 109.736 56.5392 108.69 53.2985C107.132 48.4178 106.728 42.8032 109.363 38.3975C110.969 35.7016 113.64 33.8488 116.601 32.8997C118.942 32.1605 121.342 32.6965 123.615 32.6089C122.642 31.5103 121.529 30.5277 120.21 29.7431C118.462 28.6891 116.441 27.9822 114.357 27.9428C112.268 27.8875 110.173 28.6036 108.416 29.9118C104.836 32.5428 102.717 37.0808 101.824 41.7886C100.927 46.5476 101.251 51.3772 101.996 55.926C102.777 60.4833 103.996 64.8392 105.073 69.0103C106.165 73.1778 107.11 77.212 107.579 81.0709C107.806 82.8598 107.842 85.3455 107.655 87.079C108.066 86.6832 109.15 86.0824 109.529 85.6939ZM113.555 65.7203C112.316 65.5702 110.629 65.0041 109.079 63.8708C107.526 62.7217 106.489 61.2697 105.993 60.1286C105.48 58.9912 105.416 58.2025 105.511 58.1806C105.738 58.078 106.643 61.0668 109.591 63.1841C112.489 65.3796 115.612 65.3476 115.572 65.608C115.562 65.7107 114.799 65.8862 113.555 65.7203ZM110.731 68.7968C108.934 69.8629 107.774 71.1507 107.685 71.054C107.587 70.9928 108.64 69.5289 110.513 68.4286C112.378 67.2966 114.167 67.0693 114.173 67.1683C114.186 67.2991 112.521 67.699 110.731 68.7968ZM109.683 81.1226C109.64 81.0822 110.037 80.6228 110.777 79.9839C111.517 79.345 112.628 78.5707 113.966 77.9114C115.304 77.2522 116.605 76.8692 117.563 76.6657C118.52 76.4622 119.118 76.4419 119.132 76.5055C119.162 76.6326 116.785 76.9953 114.153 78.2869C111.517 79.5626 109.772 81.2193 109.683 81.1226Z" fill="#DD9C78"/>
<path d="M157.937 66.7103C157.836 66.6332 157.278 67.2637 156.358 68.2118C155.434 69.144 154.108 70.4366 152.343 71.2777C150.574 72.1029 148.729 72.1591 147.504 71.8549C146.264 71.5545 145.605 71.0197 145.516 71.1407C145.459 71.1871 145.822 71.6728 146.645 72.1196C146.028 72.0605 145.411 72.0686 144.795 72.2271C143.896 72.4673 143.129 73.0622 142.39 73.6338C142.402 74.0495 142.43 74.4616 142.445 74.8932C143.439 75.2839 144.379 75.8042 145.266 76.3868C144.919 76.3328 144.568 76.2629 144.209 76.2284C142.597 76.0634 141.135 76.1821 140.094 76.388C139.054 76.5939 138.456 76.8318 138.467 76.8795C138.496 77.0067 141.014 76.3104 144.157 76.6587C144.5 76.6968 144.812 76.7423 145.14 76.7841C144.736 76.7765 144.324 76.8043 143.957 76.9556C143.328 77.2009 142.789 77.8437 142.927 78.515C143.046 79.1068 143.585 79.485 144.094 79.8033C145.231 80.5291 146.385 81.2513 147.523 81.9771C145.294 81.6026 143.756 81.7555 143.784 81.95C143.788 81.9659 143.795 81.9977 143.818 82.0258C141.706 81.5743 139.57 80.6595 137.397 80.5234C136.804 80.4924 136.19 80.5164 135.62 80.2959C135.42 80.2249 135.24 80.0988 135.061 79.9728C135.061 79.9728 135.061 79.9728 135.077 79.9691C135.853 79.2716 136.302 78.3818 136.456 77.5261C136.741 75.8537 136.29 74.6185 136.024 73.8261C135.941 73.6108 135.865 73.4274 135.797 73.2757C136.119 73.5865 136.463 73.8423 136.804 74.0149C137.665 74.4863 138.467 74.5529 138.959 74.5068C139.462 74.4411 139.698 74.3031 139.688 74.2554C139.686 74.105 138.592 74.4405 137.143 73.4515C136.431 72.9791 135.758 72.1631 135.261 71.022C134.752 69.9005 134.392 68.4771 134.014 66.907C133.293 63.7753 132.78 59.9432 132.943 55.7045C133.043 53.5894 133.232 51.3533 133.838 49.1885C134.433 47.0432 135.455 44.8664 137.261 43.5473C138.714 42.4431 140.547 42.1889 142.351 42.3932C141.679 42.8157 141.04 43.3141 140.461 43.9996C138.446 46.3712 137.709 49.5703 137.433 52.6634C137.353 53.5522 137.312 54.4654 137.414 55.3458C137.538 56.3216 137.844 57.2889 138.175 58.2171C139.262 61.1974 140.77 64.1145 143.147 66.2289C145.525 68.3433 148.878 69.5305 151.952 68.7062C153.117 68.388 154.189 67.8068 155.248 67.2451C156.172 66.7482 157.095 66.2513 158.018 65.7543C158.182 66.1017 158.1 66.4721 157.927 66.813C157.944 66.7421 157.953 66.7067 157.937 66.7103Z" fill="#DD9C78"/>
<path d="M163.047 91.9812C163.277 91.7442 163.425 91.4423 163.466 91.1819C163.588 90.4008 163.446 89.9312 163.432 89.4323C163.386 88.9408 163.331 88.4847 163.28 88.0445C163.242 87.7352 163.208 87.4417 163.166 87.1837C165.093 89.2343 167.099 90.5305 168.635 91.3153C169.681 91.8613 170.554 92.1627 171.136 92.3637C171.726 92.5292 172.045 92.6064 172.054 92.571C172.096 92.461 170.865 92.0578 168.873 90.8924C167.167 89.8789 164.872 88.1973 162.837 85.5354C162.788 85.396 162.738 85.3238 162.69 85.3348C162.428 84.9935 162.181 84.6485 161.943 84.2681C159.711 80.8981 158.185 76.0102 158.848 70.669C159.195 68.0283 160.05 65.2707 161.81 63.0248C163.506 60.7935 166.381 59.2453 169.295 59.5457C169.998 59.6184 170.702 59.8414 171.445 60.0889C172.169 60.3242 172.884 60.5949 173.571 60.8888C174.945 61.4767 176.265 62.1941 177.34 63.0849C177.796 63.4655 178.156 63.868 178.531 64.3341C176.996 63.6997 175.318 63.3158 173.717 63.1985C172.722 63.0926 171.71 63.0576 170.735 63.332C169.948 63.5466 169.243 63.9765 168.589 64.4785C164.658 67.4748 163.248 72.9878 164.177 77.8289C164.829 81.2442 166.63 84.5625 169.57 86.4303C172.495 88.3019 176.643 88.4357 179.336 86.243C180.167 85.5663 181.008 84.6365 182.067 84.7277C182.372 85.9799 182.157 87.3014 181.589 88.4698C181.247 88.7324 180.514 89.8384 179.211 90.7239C177.699 91.7914 176.148 92.0311 176.171 92.2768C176.162 92.3123 176.237 92.3454 176.343 92.3711C175.615 92.5552 174.877 92.6916 174.132 92.729C175.279 93.2017 176.314 93.9177 177.159 94.828C174.936 93.9668 172.537 93.5812 170.169 93.6908C170.077 94.1638 169.82 94.5745 169.497 94.9166C168.534 94.3681 167.922 94.1073 167.86 94.205C167.86 94.205 167.864 94.2209 167.868 94.2368C166.374 93.2747 164.746 92.5278 163.047 91.9812Z" fill="#DD9C78"/>
<path d="M204.248 123.078C204.149 123.084 204.065 123.086 203.982 123.088C203.084 123.111 202.11 123.101 201.087 123.018C199.056 122.849 196.742 122.176 194.401 121.091C193.236 120.539 192.07 119.836 191.007 118.926C189.979 118.024 189.095 116.872 188.448 115.514C187.122 112.806 186.65 109.517 186.241 106.063C186.044 104.334 185.859 102.585 186.027 100.839C186.198 99.1095 186.776 97.4032 187.965 96.0921C189.747 94.092 192.542 92.9973 195.387 92.9957C195.214 93.1191 195.051 93.207 194.882 93.3462C193.494 94.5189 192.519 96.0991 191.556 97.6597C191.021 98.5359 190.473 99.4317 190.217 100.428C189.961 101.424 190.02 102.482 190.072 103.508C190.271 106.994 190.526 110.651 192.394 113.602C194.345 116.702 197.765 118.543 201.017 120.239C202.044 120.773 203.07 121.306 204.201 121.565C206.478 122.079 208.83 121.388 211.052 120.642C208.968 121.841 206.642 122.644 204.248 123.078Z" fill="#DD9C78"/>
<path d="M189.038 118.592C188.807 118.243 188.589 117.875 188.398 117.483C188.972 118.305 189.631 119.058 190.375 119.673C191.532 120.629 192.785 121.345 194.017 121.899C196.489 122.97 198.876 123.593 201.03 123.717C201.046 123.713 201.046 123.713 201.065 123.726C202.742 125.265 204.418 126.804 206.098 128.359C207.545 129.7 209.061 131.126 209.646 133.016C206.802 130.474 204.115 128.615 201.976 127.249C200.904 126.591 199.945 126.059 199.106 125.616C198.332 125.158 197.573 124.696 196.789 124.274C193.938 122.72 190.843 121.273 189.038 118.592Z" fill="#DD9C78"/>
<path d="M87.3242 330.806C104.987 348.218 98.4199 377.664 117.982 394.238C126.441 401.397 138.155 404.879 148.971 402.492C153.143 401.566 157.214 399.759 160.258 396.766C162.431 394.643 164.016 392.002 165.522 389.379C187.7 350.668 197.181 306.091 198.426 261.801C198.831 247.698 198.282 233.597 198.557 219.508C199.102 191.095 195.668 163.213 166.585 149.783C156.382 145.084 142.777 145.752 135.591 154.385C127.922 163.614 130.322 177.323 126.982 188.853C121.102 209.136 95.9263 219.898 75.799 213.53C71.2873 212.108 67.0782 209.963 63.2508 207.295C61.9538 203.693 60.4688 199.565 59.0123 194.98C57.346 189.772 55.8133 183.982 54.9412 177.789C53.2214 165.363 54.2971 153.885 55.8227 145.818C57.3727 137.712 59.1894 132.875 58.8044 132.729C58.7457 132.692 58.5425 132.974 58.2316 133.514C58.2001 133.086 58.1602 132.476 58.0788 131.758C63.7199 121.79 70.9901 112.72 79.9108 105.513C84.1555 102.428 88.2336 99.9999 91.3037 98.1388C94.9976 95.9334 97.2679 94.5242 97.1836 94.3762C97.1299 94.2881 96.2444 94.6591 94.7388 95.3904C95.7956 94.7456 96.8488 94.0849 97.9056 93.4402C97.9656 93.4096 98.0218 93.3632 98.0818 93.3327C98.9898 93.8603 100.075 94.2132 101.26 94.1248C102.908 94.0135 104.489 93.0977 105.641 91.7781C106.28 91.0621 106.751 90.2005 107.109 89.2813C107.973 88.3797 109.258 86.9794 110.871 85.5538C113.617 83.0812 116.234 81.5083 116.058 81.1805C115.922 80.8772 112.917 82.0035 110.019 84.6118C109.073 85.4486 108.288 86.332 107.668 87.1275C107.678 87.0248 107.72 86.9148 107.729 86.8121C107.758 86.5712 107.77 86.334 107.795 86.0773C111.216 83.4157 114.717 80.9534 118.549 79.6369C121.03 78.7817 123.843 79.005 126.67 79.3592C125.473 79.4671 124.701 79.6781 124.713 79.8762C124.726 80.2246 126.899 80.4279 129.547 80.5888C130.381 80.6481 131.144 80.6902 131.836 80.7152C132.433 80.9124 133.09 80.9288 133.655 80.7654C133.718 80.7507 133.762 80.7239 133.806 80.697C134.167 80.6643 134.402 80.5935 134.428 80.4872C134.424 80.4713 134.404 80.459 134.401 80.4431C134.625 80.3247 134.809 80.1818 134.99 80.023C138.327 80.1929 141.619 80.8249 144.839 81.7247C144.174 81.7438 143.792 81.8315 143.814 81.9269C143.783 82.3022 147.844 82.6402 152.252 84.7732C155.346 86.2206 157.634 88.088 158.831 89.0009C158.981 89.6527 159.222 90.3339 159.605 90.9821C159.962 91.5864 160.499 92.2494 161.405 92.4763C161.827 92.5634 162.286 92.5246 162.702 92.295C162.838 92.2303 162.947 92.1216 163.056 92.0129C165.497 92.4389 168.527 93.9681 171.747 96.324C169.528 94.8259 167.983 94.0766 167.901 94.2293C167.689 94.5458 172.503 97.7905 177.621 102.723C181.845 106.756 184.894 110.624 186.04 111.749C186.404 113.256 186.867 114.689 187.542 116.023C188.259 117.466 189.256 118.743 190.416 119.714C190.643 119.897 190.865 120.063 191.087 120.229C192.971 123.177 197.167 123.083 200.118 125.216C201.304 126.081 202.117 127.066 203.022 127.946C202.67 127.725 202.311 127.473 201.998 127.277C199.893 125.987 198.224 125.133 197.07 124.628C195.916 124.123 195.324 123.875 195.299 123.914C195.275 123.953 195.85 124.272 196.955 124.855C198.06 125.438 199.68 126.371 201.729 127.707C205.721 130.438 211.6 134.894 216.881 142.5C217.564 143.431 218.138 144.471 218.791 145.492C219.34 146.571 220.005 147.64 220.493 148.816C221.593 151.124 222.431 153.676 222.969 156.381C223.981 161.873 223.624 168.031 223.163 174.615C223.106 187.901 219.064 202.422 216.795 219.045C216.515 221.101 216.335 223.302 216.306 225.434C216.262 227.57 216.217 229.706 216.168 231.893C216.046 236.24 215.899 240.692 215.667 245.215C215.187 254.263 214.456 263.671 212.924 273.313C211.46 282.956 209.2 292.781 206.313 302.785C205.6 305.292 204.817 307.782 204.042 310.304C203.23 312.817 202.427 315.362 201.607 317.911C199.978 323.056 198.588 328.363 197.37 333.765C192.592 355.418 190.833 378.553 187.091 402.16C186.133 408.038 184.945 413.935 183.222 419.688C181.459 425.416 179.102 431.029 175.777 436.079C169.251 446.2 158.237 453.621 146 455.431C142.988 455.873 139.765 455.978 136.639 456.212C135.07 456.305 133.501 456.398 131.945 456.471C131.181 456.496 130.369 456.532 129.724 456.496L127.442 456.252L126.309 456.127L125.189 455.916L122.949 455.494C121.497 455.075 120.016 454.746 118.614 454.181C117.182 453.707 115.838 453.029 114.473 452.406C113.181 451.665 111.833 450.971 110.627 450.093C109.356 449.298 108.223 448.303 107.057 447.382C105.969 446.361 104.84 445.382 103.86 444.251C102.812 443.187 101.916 441.987 100.965 440.833C100.098 439.61 99.1901 438.43 98.4269 437.149C95.1979 432.134 92.8251 426.62 90.8729 421.044C87.1007 409.81 85.1798 398.184 84.0143 386.786C83.4218 381.08 83.1252 375.424 82.7258 369.758C82.3142 364.112 81.79 358.558 81.2842 353.084C80.4312 343.991 79.6259 335.104 79.1456 326.394C82.2154 326.642 85.0554 328.583 87.3242 330.806Z" fill="#DD9C78"/>
<path d="M217.8 142.121C217.75 142.049 217.7 141.977 217.65 141.904C213.547 136.22 209.176 132.354 205.492 129.653C205.492 129.653 205.492 129.653 205.512 129.666C210.584 131.779 214.457 136.245 217.594 141.298C217.663 141.6 217.745 141.882 217.8 142.121Z" fill="#DD9C78"/>
<path d="M188.449 115.53C188.133 114.883 187.873 114.19 187.645 113.489C188.376 114.777 189.034 116.183 189.67 117.492C189.198 116.898 188.796 116.237 188.449 115.53Z" fill="#DD9C78"/>
<path d="M178.291 422.411C188.436 401.683 185.862 377.319 189.079 354.485C191.739 335.629 196.801 317.174 202.404 298.964C213.374 263.266 213.345 235.705 213.755 200.227C213.856 190.697 217.614 181.564 219.113 172.148C220.267 164.936 219.642 156.979 220.898 149.777C221.781 151.8 222.472 154.001 222.942 156.337C223.954 161.828 223.596 167.986 223.135 174.57C223.078 187.856 219.037 202.377 216.768 219.001C216.487 221.057 216.307 223.258 216.279 225.39C216.234 227.526 216.19 229.662 216.141 231.849C216.019 236.195 215.872 240.648 215.64 245.17C215.16 254.219 214.428 263.626 212.896 273.268C211.432 282.911 209.173 292.737 206.285 302.741C205.573 305.248 204.79 307.738 204.014 310.26C203.203 312.773 202.399 315.318 201.579 317.866C199.951 323.011 198.56 328.319 197.342 333.721C192.565 355.374 190.806 378.508 187.063 402.116C186.105 407.994 184.917 413.891 183.194 419.643C181.432 425.371 179.074 430.985 175.75 436.034C169.224 446.156 158.21 453.576 145.972 455.387C142.961 455.828 139.738 455.934 136.611 456.167C135.043 456.26 133.474 456.353 131.917 456.427C131.153 456.452 130.341 456.488 129.697 456.452L127.415 456.207L126.281 456.083L125.161 455.872C147.048 455.189 168.602 442.215 178.291 422.411Z" fill="#EDCCB4"/>
<path d="M109.818 44.0854C109.019 48.688 110.484 53.4561 112.849 57.4815C113.566 58.7059 114.433 59.9291 115.682 60.6294C116.505 61.0762 117.451 61.2603 118.396 61.294C122.856 61.4733 127.193 58.1326 128.153 53.7941C128.451 52.4702 128.457 51.1131 128.431 49.7633C128.395 47.7129 128.259 45.6686 128.025 43.6303C127.958 42.9762 127.879 42.3416 127.685 41.7167C127.473 41.0123 127.121 40.3567 126.754 39.7048C125.859 38.0695 124.933 36.3742 123.504 35.1799C120.762 32.8647 117.455 34.0605 114.804 35.9255C112.176 37.8187 110.37 40.8788 109.818 44.0854Z" fill="#EDCCB4"/>
<path d="M60.8497 55.2464C60.9898 62.696 65.2163 69.5739 70.6117 74.6933C71.2764 75.3271 71.9692 75.9377 72.788 76.3687C73.7205 76.8572 74.7731 77.067 75.8404 77.1228C82.1061 77.4391 87.6411 72.2494 89.5111 66.2623C91.3812 60.2752 90.3051 53.7774 88.5513 47.7534C86.4329 40.5078 81.5496 32.1574 73.0862 36.1126C65.88 39.494 60.6929 47.2148 60.8497 55.2464Z" fill="#EDCCB4"/>
<path d="M140.342 50.6882C140.086 51.6845 139.834 52.6966 139.822 53.7371C139.796 55.0819 140.183 56.399 140.658 57.6623C141.793 60.6317 143.647 63.4524 146.369 65.1025C149.092 66.7526 152.799 67.0047 155.39 65.1702C156.124 64.6499 156.782 63.9461 157.071 63.0929C157.319 62.3497 157.302 61.5501 157.222 60.7651C156.91 57.3721 155.814 54.0592 154.056 51.1493C153.27 49.8405 152.332 48.6001 151.103 47.6944C150.396 47.1706 149.62 46.7801 148.836 46.4249C147.509 45.8261 144.114 43.9457 142.704 44.655C141.262 45.3717 140.702 49.2665 140.342 50.6882Z" fill="#EDCCB4"/>
<path d="M166.104 69.4691C165.585 70.5593 165.415 71.7867 165.389 72.9812C165.305 75.9631 165.945 78.9627 167.199 81.6534C167.5 82.304 167.848 82.9437 168.345 83.4319C168.819 83.892 169.411 84.2078 170.019 84.4528C171.778 85.1864 173.739 85.4886 175.606 85.0926C176.179 84.961 176.784 84.7548 177.188 84.3272C177.414 84.0742 177.578 83.7687 177.723 83.4509C179.248 80.1876 179.386 76.2728 178.076 72.9084C177.05 70.2656 175.143 67.9424 172.754 66.4332C170.056 64.744 167.376 66.8499 166.104 69.4691Z" fill="#EDCCB4"/>
<path d="M191.027 106.869C191.185 107.553 191.485 108.203 191.801 108.85C192.624 110.536 193.586 112.172 194.951 113.448C196.316 114.725 198.127 115.614 199.988 115.554C200.285 115.536 200.594 115.498 200.866 115.369C201.253 115.162 201.514 114.768 201.724 114.368C202.866 112.13 202.73 109.283 201.389 107.164C200.913 106.403 200.292 105.742 199.659 105.101C198.735 104.142 197.796 103.187 196.608 102.606C195.644 102.125 192.722 101.14 191.728 101.837C190.693 102.577 190.782 105.804 191.027 106.869Z" fill="#EDCCB4"/>
<path d="M94.3683 331.093C97.1545 334.62 98.8949 338.84 100.39 343.082C106.306 359.781 109.821 378.556 122.833 390.594C124.642 392.27 126.65 393.8 128.981 394.619C131.241 395.422 133.67 395.499 136.066 395.584C143.86 395.85 152.406 395.893 158.517 391.023C162.663 387.726 164.95 382.681 167.099 377.835C160.161 374.593 152.401 379.86 144.812 380.852C136.395 381.951 127.537 377.059 123.991 369.355C122.717 366.585 122.09 363.566 121.076 360.686C120.058 357.79 118.646 355.068 117.249 352.343C113.874 345.822 110.516 339.297 107.141 332.775C105.752 330.082 104.316 327.332 102.18 325.179C99.4387 322.429 88.087 316.738 84.4713 320.666C81.4539 323.921 92.2428 328.402 94.3683 331.093Z" fill="#EDCCB4"/>
<path d="M120.709 84.4451C133.597 81.5311 146.737 86.9948 158.831 92.3476C163.917 94.5924 169.081 96.8861 173.415 100.375C177.749 103.864 181.25 108.75 181.866 114.265C175.815 114.737 170.529 110.529 165.635 106.935C157.798 101.172 149.096 96.3777 139.618 94.1726C130.139 91.9674 119.821 92.5162 111.166 96.9505C106.375 99.4082 102.193 102.981 97.2187 105.079C93.2342 106.749 84.2365 107.145 91.0527 101.995C99.9731 95.2234 109.571 86.9568 120.709 84.4451Z" fill="#EABD96"/>
<path d="M113.554 65.7208C112.314 65.5707 110.627 65.0046 109.078 63.8713C107.525 62.7222 106.488 61.2702 105.991 60.1291C105.478 58.9917 105.414 58.203 105.51 58.1811C105.737 58.0785 106.642 61.0673 109.59 63.1846C112.488 65.3801 115.611 65.3481 115.57 65.6085C115.56 65.7112 114.797 65.8867 113.554 65.7208Z" fill="#736357"/>
<path d="M145.525 71.1051C145.614 70.9841 146.26 71.5384 147.513 71.8193C148.738 72.1234 150.587 72.0832 152.352 71.2421C154.117 70.4009 155.447 69.1243 156.367 68.1762C157.287 67.2281 157.848 66.6135 157.946 66.6747C158.028 66.7395 157.646 67.4802 156.822 68.5567C155.995 69.6174 154.67 71.0603 152.725 71.993C150.761 72.9135 148.677 72.874 147.357 72.3743C146.012 71.9136 145.472 71.1674 145.525 71.1051Z" fill="#736357"/>
<path d="M179.223 90.7034C180.758 89.6641 181.528 88.2819 181.756 88.3969C181.968 88.4484 181.468 90.2038 179.717 91.3933C177.972 92.6147 176.151 92.4814 176.182 92.2564C176.159 92.0107 177.711 91.7709 179.223 90.7034Z" fill="#736357"/>
<path d="M208.304 125.525C211.347 126.967 212.994 129.25 212.802 129.361C212.624 129.536 210.8 127.646 207.925 126.282C205.079 124.894 202.46 124.643 202.489 124.402C202.473 124.188 205.285 124.043 208.304 125.525Z" fill="#736357"/>
<path d="M179.598 96.6936C181.093 98.1741 181.751 99.797 181.656 99.819C181.536 99.88 180.745 98.4049 179.296 96.9808C177.859 95.537 176.39 94.7535 176.463 94.6361C176.493 94.5457 178.115 95.1936 179.598 96.6936Z" fill="#736357"/>
<path d="M65.0475 118.773C67.3451 115.081 71.3574 110.476 76.5981 106.408C81.8352 102.325 87.0665 99.3809 90.852 97.3553C94.673 95.3383 97.0921 94.2128 97.1605 94.3644C97.2484 94.5283 94.9745 95.9217 91.2806 98.1271C87.6099 100.361 82.4995 103.394 77.3628 107.404C72.226 111.414 68.2102 115.786 65.782 119.274C63.3024 122.756 62.2235 125.197 62.0353 125.106C61.9607 125.073 62.147 124.428 62.6076 123.301C63.0876 122.186 63.881 120.615 65.0475 118.773Z" fill="#736357"/>
<path d="M53.8134 109.875C55.6362 121.875 57.3872 131.816 58.008 133.933C57.0664 135.807 55.4643 139.757 54.0591 145.436C52.0493 153.581 50.6359 165.338 52.4117 178.153C53.3118 184.54 54.9483 190.491 56.7723 195.729C58.5805 200.97 60.4759 205.572 62.0809 209.421C62.4897 210.398 62.8876 211.328 63.2746 212.21C63.5723 212.995 63.8664 213.764 64.1642 214.549C66.8293 221.552 69.3865 229.031 71.4665 237.056C75.6865 253.074 78.4254 271.241 77.5592 290.688C77.3491 295.524 76.772 300.511 76.6204 305.6C76.4492 310.678 76.4345 315.853 76.6202 321.1C76.972 331.58 77.9326 342.306 78.9284 353.258C79.4184 358.735 79.9267 364.293 80.3114 369.895C80.6961 375.497 80.9756 381.224 81.5669 386.997C82.7102 398.517 84.6323 410.294 88.4862 421.81C90.4713 427.53 92.9002 433.214 96.2672 438.466C97.0609 439.806 98.0149 441.043 98.9285 442.322C99.9265 443.532 100.868 444.789 101.982 445.922C103.025 447.105 104.219 448.152 105.374 449.242C106.622 450.227 107.817 451.275 109.169 452.135C110.457 453.078 111.884 453.821 113.289 454.619C114.749 455.288 116.191 456.027 117.712 456.531C119.209 457.141 120.781 457.499 122.335 457.928C123.128 458.097 123.912 458.235 124.717 458.384L125.908 458.613L127.108 458.738L129.509 458.989C130.422 459.03 131.187 459.005 131.998 458.969C133.59 458.904 135.175 458.808 136.76 458.711C139.918 458.47 143.045 458.387 146.335 457.915C159.318 456 170.965 448.132 177.831 437.447C181.314 432.144 183.752 426.294 185.576 420.401C187.346 414.487 188.544 408.487 189.503 402.542C193.232 378.804 194.963 355.693 199.622 334.251C200.803 328.908 202.16 323.675 203.752 318.589C204.553 316.028 205.356 313.483 206.168 310.97C206.94 308.432 207.716 305.91 208.424 303.387C211.297 293.32 213.527 283.367 214.97 273.628C216.463 263.895 217.145 254.415 217.578 245.311C217.787 240.76 217.915 236.295 218.001 231.94C218.035 229.757 218.075 227.605 218.104 225.472C218.116 223.344 218.257 221.336 218.534 219.264C219.575 211.057 221.131 203.268 222.356 195.856C222.976 192.148 223.57 188.547 223.922 184.984C224.13 183.196 224.156 181.416 224.239 179.74C224.331 178.028 224.433 176.364 224.52 174.704C224.926 168.099 225.227 161.837 224.103 156.154C223.488 153.333 222.596 150.692 221.438 148.348C220.91 147.147 220.226 146.065 219.638 144.962C219.122 144.177 218.639 143.384 218.115 142.634C218.014 141.904 217.778 140.586 217.495 138.777C217.024 135.855 216.388 131.633 215.949 126.378C215.73 123.75 215.551 120.862 215.459 117.77C215.339 114.701 215.526 111.294 214.667 107.776C213.812 104.206 211.487 101.009 208.716 98.3488C205.948 95.7047 202.601 93.1604 198.47 92.1524C194.74 91.2193 190.589 92.0905 187.815 94.5863C187.971 94.0986 188.12 93.5118 188.264 92.826C188.703 90.5156 188.97 87.0899 188.527 82.907C188.281 80.821 187.905 78.5308 187.091 76.1571C186.217 73.8139 185.083 71.4301 183.553 69.0706C182.784 67.9085 181.931 66.7488 181.05 65.6124C180.602 65.046 180.166 64.46 179.718 63.8936C179.305 63.3358 178.732 62.6642 178.132 62.1661C176.909 61.1419 175.514 60.3914 174.062 59.7546C173.336 59.4362 172.586 59.1569 171.827 58.913C171.087 58.6814 170.285 58.3972 169.413 58.3134C166.703 58.0327 164.155 59.1043 162.26 60.762C162.233 60.2827 162.163 59.6127 161.988 58.7824C161.623 56.9751 160.846 54.3251 158.992 51.5044C157.186 48.6727 154.273 45.7607 150.389 43.5742C148.435 42.5006 146.324 41.5466 143.898 40.9666C142.696 40.6906 141.393 40.5552 140.057 40.7119C138.736 40.865 137.374 41.3458 136.246 42.191C133.974 43.8851 132.869 46.4323 132.232 48.7548C131.609 51.141 131.442 53.4724 131.377 55.6633C131.286 60.0696 131.943 64.0192 132.845 67.2097C133.309 68.7933 133.757 70.2302 134.403 71.4374C134.67 71.945 134.971 72.378 135.308 72.7524C135.269 72.9456 135.312 73.3539 135.384 73.9568C135.468 74.7576 135.663 75.9682 135.302 77.2395C135.121 77.8335 134.741 78.4397 134.175 78.888C133.609 79.3363 132.913 79.5131 132.3 79.2522C131.692 79.0072 131.179 78.3051 130.852 77.3927C130.516 76.5159 130.331 75.4202 130.13 74.3283C128.719 66.736 129.952 60.3095 130.012 58.6052C130.132 58.3265 130.271 58.0601 130.388 57.7655C131.314 55.2427 131.59 52.1496 131.213 48.8385C130.821 45.531 129.997 42.0214 128.618 38.355C127.218 34.7435 124.937 30.8661 121.014 28.4376C119.086 27.2576 116.819 26.4233 114.375 26.3494C111.943 26.256 109.43 27.1185 107.427 28.6001C103.346 31.5975 101.113 36.5133 100.148 41.4887C99.1981 46.5277 99.5502 51.5518 100.34 56.224C101.166 60.9048 102.44 65.2816 103.545 69.4295C104.666 73.5738 105.643 77.5334 106.17 81.2787C106.435 83.1593 106.595 84.9469 106.397 86.6328C106.215 88.315 105.664 89.8478 104.689 90.9927C103.733 92.1498 102.436 92.9167 101.144 93.0466C99.8356 93.1801 98.5949 92.662 97.6675 91.9046C95.754 90.3529 95.0636 88.1516 94.8313 86.4141C94.6258 84.9382 94.6487 83.7279 94.6542 82.806C95.3964 81.0117 96.0507 79.0535 96.5462 76.9143C98.3564 69.2839 97.9427 59.7716 95.5315 49.7981C94.3039 44.8247 92.4494 39.5269 88.7945 35.0617C86.9646 32.8547 84.7225 30.8932 82.09 29.4902C79.4697 28.0676 76.3905 27.2694 73.302 27.3772C67.0615 27.6075 61.5768 30.978 57.7861 35.1639C53.939 39.3964 51.3973 44.2826 49.5415 49.0947C45.8874 58.823 45.6579 68.4498 47.0804 76.0899C47.7758 79.9135 48.8309 83.3364 50.3498 86.0836C50.4609 86.2756 50.5806 86.4322 50.6722 86.612C50.9644 89.9928 52.1768 99.1206 53.8134 109.875ZM55.0716 109.669C53.5932 99.9664 52.1724 91.6063 51.3451 87.6456C52.6617 89.5856 54.173 91.0624 55.6468 92.0123C57.4836 93.2301 59.1717 93.729 60.3 93.9046C61.4443 94.0766 62.0471 94.0049 62.052 93.9536C62.0533 93.8863 61.4567 93.8394 60.3736 93.5697C59.2906 93.2999 57.7346 92.7205 56.025 91.4734C54.3191 90.2422 52.5477 88.2896 51.1974 85.6208C49.8312 82.9557 48.8776 79.6099 48.2677 75.867C47.0322 68.3848 47.3911 59.0295 51.0193 49.6252C52.864 44.983 55.3714 40.2386 59.0275 36.2677C60.8494 34.292 62.9878 32.5281 65.4218 31.2485C67.8557 29.9689 70.5779 29.142 73.3815 29.0327C79.0204 28.807 84.1874 31.9871 87.5406 36.0866C90.9719 40.235 92.8034 45.287 94.0372 50.1418C96.4876 59.9221 96.9968 69.1949 95.3923 76.6274C93.8463 84.0965 90.3934 89.4601 87.5644 92.588C84.6951 95.7587 82.5754 96.9492 82.6914 97.0899C82.7183 97.1339 83.2577 96.8592 84.2191 96.2364C85.161 95.6013 86.5176 94.5863 88.0507 93.0285C90.0634 91.009 92.3373 87.9418 94.19 83.917C94.1406 84.6481 94.1327 85.4869 94.2017 86.4418C94.3532 88.2648 94.9712 90.7338 97.0851 92.5741C98.1126 93.4759 99.5952 94.1727 101.243 94.0614C102.892 93.9501 104.472 93.0343 105.625 91.7147C106.263 90.9987 106.735 90.1371 107.092 89.2179C107.956 88.3163 109.241 86.916 110.855 85.4904C113.6 83.0178 116.218 81.4449 116.042 81.1171C115.905 80.8138 112.9 81.9401 110.002 84.5484C109.056 85.3852 108.272 86.2686 107.651 87.0641C107.661 86.9614 107.703 86.8514 107.713 86.7487C107.954 84.8855 107.816 82.9757 107.575 81.056C107.106 77.197 106.161 73.1629 105.069 68.9954C103.992 64.8242 102.757 60.472 101.992 55.911C101.247 51.3623 100.92 46.5167 101.82 41.7736C102.716 37.0818 104.836 32.5437 108.412 29.8968C110.17 28.5887 112.261 27.8566 114.353 27.9278C116.437 27.9672 118.474 28.6705 120.207 29.7281C123.743 31.8605 125.928 35.3918 127.323 38.837C128.709 42.3176 129.577 45.8003 130.032 48.9427C130.475 52.1048 130.277 55.0292 129.504 57.4164C128.711 59.7914 127.387 61.6024 126.11 62.8168C124.813 64.0189 123.554 64.6599 122.658 64.9832C121.781 65.3188 121.277 65.3845 121.28 65.4676C121.287 65.4994 121.801 65.5487 122.747 65.2975C123.697 65.0622 125.077 64.5106 126.524 63.3073C127.336 62.6184 128.161 61.6922 128.894 60.5863C128.72 61.2121 128.552 61.937 128.41 62.7732C127.871 65.7426 127.628 69.9996 128.467 74.5936C128.679 75.7333 128.884 76.8411 129.31 77.965C129.483 78.4273 129.743 78.9031 130.079 79.3447C129.925 79.3299 129.771 79.3151 129.601 79.304C126.866 79.1297 124.675 79.4997 124.688 79.8482C124.701 80.1967 126.874 80.4 129.522 80.5608C130.355 80.6201 131.118 80.6623 131.81 80.6872C132.408 80.8845 133.065 80.9008 133.63 80.7374C133.693 80.7228 133.737 80.6959 133.781 80.6691C134.142 80.6363 134.377 80.5656 134.402 80.4592C134.399 80.4433 134.379 80.4311 134.376 80.4152C134.643 80.2699 134.872 80.1001 135.081 79.9181C135.858 79.2205 136.306 78.3308 136.461 77.475C136.746 75.8027 136.294 74.5675 136.028 73.7751C135.945 73.5598 135.87 73.3764 135.801 73.2247C136.124 73.5355 136.467 73.7913 136.808 73.9639C137.67 74.4352 138.472 74.5018 138.964 74.4557C139.467 74.3901 139.703 74.2521 139.692 74.2044C139.691 74.054 138.597 74.3895 137.147 73.4005C136.436 72.9281 135.763 72.1121 135.266 70.971C134.757 69.8495 134.396 68.4261 134.019 66.856C133.298 63.7243 132.785 59.8922 132.948 55.6534C133.048 53.5384 133.236 51.3023 133.843 49.1375C134.438 46.9922 135.46 44.8154 137.266 43.4963C139.032 42.1527 141.4 42.0431 143.556 42.535C145.727 43.0231 147.807 43.9172 149.652 44.8819C153.358 46.8751 156.177 49.5241 158.011 52.115C159.893 54.6949 160.812 57.1616 161.358 58.8773C161.653 59.7969 161.833 60.5086 161.959 60.9819C161.548 61.3777 161.14 61.7895 160.807 62.2343C158.873 64.738 158.001 67.7169 157.671 70.5043C157.198 74.6303 157.999 78.4798 159.404 81.6046C159.223 81.981 158.985 82.8392 158.772 84.0934C158.633 84.9455 158.522 85.992 158.575 87.1682C158.594 87.3981 158.618 87.6438 158.637 87.8737C157.493 86.6136 155.524 84.8907 152.782 83.5964C148.093 81.3274 143.763 81.57 143.805 81.8953C143.774 82.2706 147.835 82.6086 152.242 84.7416C155.337 86.189 157.624 88.0564 158.822 88.9693C158.972 89.6211 159.212 90.3023 159.596 90.9505C159.952 91.5548 160.49 92.2178 161.396 92.4447C161.817 92.5318 162.277 92.493 162.693 92.2634C163.125 92.0302 163.387 91.5683 163.465 91.182C163.587 90.4008 163.445 89.9312 163.431 89.4324C163.385 88.9408 163.33 88.4847 163.279 88.0446C163.241 87.7352 163.207 87.4417 163.165 87.1837C165.093 89.2343 167.098 90.5305 168.634 91.3153C169.681 91.8614 170.553 92.1627 171.135 92.3637C171.725 92.5292 172.045 92.6064 172.053 92.571C172.095 92.461 170.864 92.0578 168.872 90.8924C167.166 89.8789 164.871 88.1973 162.836 85.5354C162.787 85.396 162.737 85.3238 162.689 85.3348C162.427 84.9935 162.18 84.6485 161.942 84.2681C159.711 80.8981 158.185 76.0102 158.847 70.669C159.194 68.0284 160.05 65.2707 161.809 63.0248C163.505 60.7935 166.38 59.2453 169.294 59.5457C169.997 59.6184 170.701 59.8414 171.445 60.0889C172.168 60.3242 172.883 60.5949 173.57 60.8888C174.944 61.4767 176.264 62.1941 177.339 63.085C177.896 63.5426 178.307 64.0173 178.762 64.6155C179.214 65.1978 179.663 65.7642 180.111 66.3306C180.988 67.4512 181.83 68.5632 182.592 69.6934C184.077 71.9295 185.235 74.2741 186.115 76.4987C186.932 78.7379 187.36 80.9659 187.642 82.9932C188.198 87.0833 188.067 90.4442 187.787 92.7181C187.658 93.6851 187.494 94.4259 187.356 94.9931C187.247 95.1018 187.135 95.1947 187.042 95.2997C185.655 96.8405 185 98.8659 184.83 100.746C184.667 102.658 184.87 104.486 185.086 106.227C185.272 107.691 185.486 109.131 185.757 110.525C184.582 108.62 182.048 105.169 178.484 101.754C173.257 96.7129 168.039 93.8958 167.888 94.1818C167.676 94.4983 172.49 97.743 177.608 102.675C181.832 106.708 184.881 110.576 186.027 111.702C186.391 113.208 186.854 114.642 187.529 115.976C188.246 117.418 189.243 118.695 190.403 119.667C191.561 120.622 192.813 121.339 194.045 121.892C196.518 122.964 198.904 123.587 201.058 123.71C202.126 123.766 203.12 123.722 204.015 123.683C204.906 123.629 205.75 123.585 206.497 123.414C207.982 123.105 209.05 122.508 209.653 122.001C210.276 121.507 210.493 121.139 210.473 121.126C210.412 121.007 209.289 122.453 206.403 122.933C205.696 123.062 204.893 123.063 203.991 123.069C203.092 123.092 202.119 123.081 201.095 122.999C199.065 122.83 196.751 122.157 194.409 121.072C193.244 120.52 192.078 119.817 191.015 118.907C189.988 118.005 189.103 116.853 188.456 115.495C187.131 112.787 186.659 109.498 186.249 106.044C186.052 104.315 185.868 102.566 186.035 100.82C186.206 99.0905 186.785 97.3841 187.973 96.0731C190.342 93.4193 194.485 92.3659 198.183 93.3064C201.96 94.2285 205.168 96.604 207.865 99.1637C210.563 101.723 212.722 104.708 213.547 108C214.387 111.288 214.268 114.63 214.431 117.739C214.562 120.856 214.796 123.764 215.066 126.397C215.627 131.674 216.398 135.899 217.016 138.803C217.326 140.222 217.578 141.318 217.785 142.074C217.735 142.002 217.685 141.93 217.635 141.858C212.106 134.191 206.079 129.82 201.946 127.205C199.841 125.915 198.172 125.061 197.018 124.556C195.864 124.051 195.271 123.803 195.247 123.842C195.222 123.881 195.798 124.201 196.903 124.783C198.008 125.366 199.628 126.299 201.677 127.635C205.669 130.366 211.548 134.822 216.829 142.428C217.512 143.359 218.086 144.399 218.739 145.42C219.288 146.499 219.953 147.568 220.441 148.744C221.541 151.052 222.379 153.604 222.917 156.309C223.929 161.801 223.571 167.959 223.111 174.543C223.053 187.829 219.012 202.35 216.743 218.973C216.463 221.029 216.282 223.23 216.254 225.362C216.21 227.498 216.165 229.634 216.116 231.821C215.994 236.168 215.847 240.62 215.615 245.143C215.135 254.191 214.403 263.599 212.872 273.241C211.407 282.884 209.148 292.709 206.26 302.713C205.548 305.22 204.765 307.71 203.989 310.232C203.178 312.745 202.374 315.29 201.555 317.839C199.926 322.984 198.536 328.291 197.318 333.693C192.54 355.346 190.781 378.481 187.038 402.088C186.08 407.966 184.893 413.863 183.17 419.616C181.407 425.344 179.05 430.957 175.725 436.007C169.199 446.128 158.185 453.549 145.948 455.359C142.936 455.801 139.713 455.906 136.587 456.14C135.018 456.233 133.449 456.326 131.893 456.399C131.128 456.424 130.317 456.46 129.672 456.425L127.39 456.18L126.257 456.055L125.137 455.844L122.897 455.422C121.445 455.003 119.963 454.674 118.562 454.109C117.13 453.635 115.786 452.957 114.421 452.334C113.129 451.593 111.781 450.899 110.575 450.021C109.304 449.226 108.171 448.231 107.005 447.31C105.917 446.289 104.788 445.31 103.808 444.179C102.76 443.115 101.864 441.915 100.913 440.761C100.046 439.538 99.138 438.358 98.3748 437.077C95.1458 432.062 92.773 426.548 90.8208 420.972C87.0486 409.738 85.1277 398.112 83.9622 386.714C83.3697 381.008 83.073 375.352 82.6737 369.686C82.2621 364.04 81.7379 358.486 81.232 353.012C80.2007 342.052 79.1998 331.369 78.8185 320.979C78.6279 315.784 78.6059 310.667 78.7563 305.645C78.8712 300.614 79.4311 295.698 79.6156 290.751C80.4002 271.021 77.5219 252.685 73.1419 236.553C70.9837 228.48 68.3446 220.936 65.6122 213.932C65.3596 213.27 65.1143 212.64 64.8458 211.982C64.4932 210.959 64.1101 209.875 63.6965 208.732C62.3067 204.8 60.5898 200.173 58.9394 194.963C57.2731 189.755 55.7404 183.965 54.8683 177.772C53.1485 165.346 54.2241 153.868 55.7497 145.801C57.2997 137.695 59.1164 132.858 58.7314 132.712C58.6727 132.675 58.4696 132.957 58.1586 133.497C58.069 130.705 56.8142 121.102 55.0716 109.669ZM159.68 84.1858C159.699 83.3947 159.715 82.7382 159.721 82.2516C160.163 83.1542 160.657 83.9945 161.185 84.7603C161.589 85.3535 162.01 85.8759 162.444 86.3787C162.412 86.8213 162.381 87.4142 162.368 88.0867C162.368 88.5219 162.359 88.9926 162.354 89.4793C162.349 89.9659 162.404 90.5723 162.315 90.9109C162.252 91.0759 162.2 91.1382 162.096 91.1956C161.992 91.253 161.81 91.2615 161.652 91.2308C161.333 91.1535 160.948 90.7901 160.665 90.2862C160.074 89.3174 159.854 88.146 159.744 87.0835C159.649 86.0172 159.672 85.0245 159.68 84.1858Z" fill="#736357"/>
<path d="M60.0161 114.356C60.7189 112.972 61.8854 111.13 63.4895 109.372C65.1095 107.61 66.832 106.294 68.1493 105.472C68.8062 105.053 69.3578 104.759 69.7492 104.568C70.1406 104.378 70.3717 104.291 70.379 104.323C70.4095 104.383 69.5778 104.842 68.3069 105.72C67.0359 106.598 65.3844 107.932 63.7888 109.655C62.2128 111.39 61.0281 113.152 60.2666 114.499C59.5015 115.83 59.117 116.705 59.0461 116.688C59.0265 116.675 59.0903 116.443 59.2483 116.039C59.4026 115.618 59.6549 115.041 60.0161 114.356Z" fill="#736357"/>
<path d="M110.512 68.4295C112.377 67.2975 114.166 67.0701 114.172 67.1692C114.202 67.2963 112.52 67.6998 110.727 68.7818C108.93 69.8478 107.77 71.1356 107.681 71.039C107.591 71.0096 108.627 69.5493 110.512 68.4295Z" fill="#736357"/>
<path d="M109.681 81.1236C109.638 81.0832 110.035 80.6238 110.775 79.9849C111.515 79.346 112.626 78.5717 113.964 77.9124C115.302 77.2532 116.603 76.8702 117.561 76.6667C118.518 76.4632 119.116 76.4429 119.131 76.5065C119.16 76.6336 116.783 76.9963 114.151 78.2879C111.515 79.5636 109.77 81.2203 109.681 81.1236Z" fill="#736357"/>
<path d="M144.234 76.1881C145.845 76.3531 147.25 76.7833 148.215 77.1972C149.181 77.6112 149.732 77.9698 149.708 78.0089C149.654 78.1385 147.334 76.9313 144.182 76.6185C141.039 76.2702 138.509 76.986 138.492 76.8393C138.481 76.7916 139.079 76.5536 140.12 76.3478C141.16 76.1419 142.639 76.0195 144.234 76.1881Z" fill="#736357"/>
</g>
<g filter="url(#filter0_d_23_5739)">
<path d="M229.948 157.899C225.531 157.826 221.89 161.348 221.817 165.765C221.745 170.183 225.267 173.823 229.684 173.896C234.102 173.969 237.742 170.447 237.815 166.029C237.888 161.612 234.366 157.971 229.948 157.899ZM48.132 168.001C43.7143 167.928 40.074 171.45 40.0011 175.868C39.9282 180.286 43.4504 183.926 47.868 183.999C52.2857 184.072 55.926 180.55 55.9989 176.132C56.0718 171.714 52.5497 168.074 48.132 168.001ZM229.733 164.4L47.9168 174.502L48.0832 177.498L229.9 167.395L229.733 164.4Z" fill="#009EE0"/>
</g>
<defs>
<filter id="filter0_d_23_5739" x="24" y="145.897" width="229.816" height="58.1025" filterUnits="userSpaceOnUse" color-interpolation-filters="sRGB">
<feFlood flood-opacity="0" result="BackgroundImageFix"/>
<feColorMatrix in="SourceAlpha" type="matrix" values="0 0 0 0 0 0 0 0 0 0 0 0 0 0 0 0 0 0 127 0" result="hardAlpha"/>
<feOffset dy="4"/>
<feGaussianBlur stdDeviation="8"/>
<feColorMatrix type="matrix" values="0 0 0 0 0 0 0 0 0 0.619608 0 0 0 0 0.878431 0 0 0 0.4 0"/>
<feBlend mode="normal" in2="BackgroundImageFix" result="effect1_dropShadow_23_5739"/>
<feBlend mode="normal" in="SourceGraphic" in2="effect1_dropShadow_23_5739" result="shape"/>
</filter>
</defs>
</svg>
